STARTFONT 2.1
FONT -spectrum-berry-Medium-R-Normal-Sans-11-80-75-75-M-50-ISO10646-1
SIZE 9 75 75
FONTBOUNDINGBOX 6 11 0 -2

STARTPROPERTIES 24
FONTNAME_REGISTRY ""
FOUNDRY "spectrum"
FAMILY_NAME "berry"
WEIGHT_NAME "Medium"
SLANT "R"
SETWIDTH_NAME "Normal"
ADD_STYLE_NAME "Sans"
PIXEL_SIZE 11
POINT_SIZE 80
RESOLUTION_X 75
RESOLUTION_Y 75
SPACING "P"
AVERAGE_WIDTH 50
CHARSET_REGISTRY "ISO10646"
CHARSET_ENCODING "1"
COPYRIGHT "spectrum"
FACE_NAME "berry"
_GBDFED_INFO "Edited with gbdfed 1.6."
WEIGHT 10
X_HEIGHT 0
QUAD_WIDTH 6
DEFAULT_CHAR 0
FONT_DESCENT 2
FONT_ASCENT 9
ENDPROPERTIES

CHARS 239

STARTCHAR char32
ENCODING 32
SWIDTH 545 0
DWIDTH 6 0
BBX 6 11 0 -2
BITMAP
00
00
00
00
00
00
00
00
00
00
00
ENDCHAR

STARTCHAR char33
ENCODING 33
SWIDTH 545 0
DWIDTH 6 0
BBX 6 11 0 -2
BITMAP
00
00
20
20
20
20
20
00
20
00
00
ENDCHAR

STARTCHAR char34
ENCODING 34
SWIDTH 545 0
DWIDTH 6 0
BBX 6 11 0 -2
BITMAP
00
00
50
50
50
00
00
00
00
00
00
ENDCHAR

STARTCHAR char35
ENCODING 35
SWIDTH 545 0
DWIDTH 6 0
BBX 6 11 0 -2
BITMAP
00
00
00
50
F8
50
F8
50
00
00
00
ENDCHAR

STARTCHAR char36
ENCODING 36
SWIDTH 545 0
DWIDTH 6 0
BBX 6 11 0 -2
BITMAP
00
20
70
A8
A0
70
28
A8
70
20
00
ENDCHAR

STARTCHAR char38
ENCODING 37
SWIDTH 545 0
DWIDTH 6 0
BBX 6 11 0 -2
BITMAP
00
00
24
54
28
10
28
54
48
00
00
ENDCHAR

STARTCHAR char38
ENCODING 38
SWIDTH 545 0
DWIDTH 6 0
BBX 6 11 0 -2
BITMAP
00
00
60
90
A0
40
A8
90
68
00
00
ENDCHAR

STARTCHAR char39
ENCODING 39
SWIDTH 545 0
DWIDTH 6 0
BBX 6 11 0 -2
BITMAP
00
00
20
20
20
00
00
00
00
00
00
ENDCHAR

STARTCHAR char40
ENCODING 40
SWIDTH 545 0
DWIDTH 6 0
BBX 6 11 0 -2
BITMAP
00
10
20
40
40
40
40
40
20
10
00
ENDCHAR

STARTCHAR char41
ENCODING 41
SWIDTH 545 0
DWIDTH 6 0
BBX 6 11 0 -2
BITMAP
00
40
20
10
10
10
10
10
20
40
00
ENDCHAR

STARTCHAR $10
ENCODING 42
SWIDTH 545 0
DWIDTH 6 0
BBX 6 11 0 -2
BITMAP
00
00
00
20
A8
70
A8
20
00
00
00
ENDCHAR

STARTCHAR $11
ENCODING 43
SWIDTH 545 0
DWIDTH 6 0
BBX 6 11 0 -2
BITMAP
00
00
00
20
20
F8
20
20
00
00
00
ENDCHAR

STARTCHAR $12
ENCODING 44
SWIDTH 545 0
DWIDTH 6 0
BBX 6 11 0 -2
BITMAP
00
00
00
00
00
00
00
60
60
20
40
ENDCHAR

STARTCHAR $13
ENCODING 45
SWIDTH 545 0
DWIDTH 6 0
BBX 6 11 0 -2
BITMAP
00
00
00
00
00
70
00
00
00
00
00
ENDCHAR

STARTCHAR $14
ENCODING 46
SWIDTH 545 0
DWIDTH 6 0
BBX 6 11 0 -2
BITMAP
00
00
00
00
00
00
00
30
30
00
00
ENDCHAR

STARTCHAR $15
ENCODING 47
SWIDTH 545 0
DWIDTH 6 0
BBX 6 11 0 -2
BITMAP
00
08
08
10
10
20
20
40
40
80
80
ENDCHAR

STARTCHAR $16
ENCODING 48
SWIDTH 545 0
DWIDTH 6 0
BBX 6 11 0 -2
BITMAP
00
00
70
88
98
A8
C8
88
70
00
00
ENDCHAR

STARTCHAR $17
ENCODING 49
SWIDTH 545 0
DWIDTH 6 0
BBX 6 11 0 -2
BITMAP
00
00
20
60
20
20
20
20
20
00
00
ENDCHAR

STARTCHAR $18
ENCODING 50
SWIDTH 545 0
DWIDTH 6 0
BBX 6 11 0 -2
BITMAP
00
00
70
88
08
10
20
40
F8
00
00
ENDCHAR

STARTCHAR $19
ENCODING 51
SWIDTH 545 0
DWIDTH 6 0
BBX 6 11 0 -2
BITMAP
00
00
70
88
08
30
08
88
70
00
00
ENDCHAR

STARTCHAR $20
ENCODING 52
SWIDTH 545 0
DWIDTH 6 0
BBX 6 11 0 -2
BITMAP
00
00
10
30
50
90
F8
10
10
00
00
ENDCHAR

STARTCHAR $21
ENCODING 53
SWIDTH 545 0
DWIDTH 6 0
BBX 6 11 0 -2
BITMAP
00
00
F8
80
F0
08
08
88
70
00
00
ENDCHAR

STARTCHAR $22
ENCODING 54
SWIDTH 545 0
DWIDTH 6 0
BBX 6 11 0 -2
BITMAP
00
00
70
80
F0
88
88
88
70
00
00
ENDCHAR

STARTCHAR $23
ENCODING 55
SWIDTH 545 0
DWIDTH 6 0
BBX 6 11 0 -2
BITMAP
00
00
F8
08
08
10
20
20
20
00
00
ENDCHAR

STARTCHAR $24
ENCODING 56
SWIDTH 545 0
DWIDTH 6 0
BBX 6 11 0 -2
BITMAP
00
00
70
88
88
70
88
88
70
00
00
ENDCHAR

STARTCHAR $25
ENCODING 57
SWIDTH 545 0
DWIDTH 6 0
BBX 6 11 0 -2
BITMAP
00
00
70
88
88
88
78
08
70
00
00
ENDCHAR

STARTCHAR $26
ENCODING 58
SWIDTH 545 0
DWIDTH 6 0
BBX 6 11 0 -2
BITMAP
00
00
00
00
30
30
00
30
30
00
00
ENDCHAR

STARTCHAR $27
ENCODING 59
SWIDTH 545 0
DWIDTH 6 0
BBX 6 11 0 -2
BITMAP
00
00
00
00
60
60
00
60
60
20
40
ENDCHAR

STARTCHAR $28
ENCODING 60
SWIDTH 545 0
DWIDTH 6 0
BBX 6 11 0 -2
BITMAP
00
00
08
10
20
40
20
10
08
00
00
ENDCHAR

STARTCHAR $29
ENCODING 61
SWIDTH 545 0
DWIDTH 6 0
BBX 6 11 0 -2
BITMAP
00
00
00
00
F8
00
F8
00
00
00
00
ENDCHAR

STARTCHAR $30
ENCODING 62
SWIDTH 545 0
DWIDTH 6 0
BBX 6 11 0 -2
BITMAP
00
00
40
20
10
08
10
20
40
00
00
ENDCHAR

STARTCHAR $31
ENCODING 63
SWIDTH 545 0
DWIDTH 6 0
BBX 6 11 0 -2
BITMAP
00
00
70
88
08
10
20
00
20
00
00
ENDCHAR

STARTCHAR $32
ENCODING 64
SWIDTH 545 0
DWIDTH 6 0
BBX 6 11 0 -2
BITMAP
00
00
70
88
B8
A8
B8
80
78
00
00
ENDCHAR

STARTCHAR $33
ENCODING 65
SWIDTH 545 0
DWIDTH 6 0
BBX 6 11 0 -2
BITMAP
00
00
70
88
88
F8
88
88
88
00
00
ENDCHAR

STARTCHAR $34
ENCODING 66
SWIDTH 545 0
DWIDTH 6 0
BBX 6 11 0 -2
BITMAP
00
00
F0
88
88
F0
88
88
F0
00
00
ENDCHAR

STARTCHAR $35
ENCODING 67
SWIDTH 545 0
DWIDTH 6 0
BBX 6 11 0 -2
BITMAP
00
00
78
80
80
80
80
80
78
00
00
ENDCHAR

STARTCHAR $36
ENCODING 68
SWIDTH 545 0
DWIDTH 6 0
BBX 6 11 0 -2
BITMAP
00
00
F0
88
88
88
88
88
F0
00
00
ENDCHAR

STARTCHAR $37
ENCODING 69
SWIDTH 545 0
DWIDTH 6 0
BBX 6 11 0 -2
BITMAP
00
00
F8
80
80
F0
80
80
F8
00
00
ENDCHAR

STARTCHAR $38
ENCODING 70
SWIDTH 545 0
DWIDTH 6 0
BBX 6 11 0 -2
BITMAP
00
00
F8
80
80
F0
80
80
80
00
00
ENDCHAR

STARTCHAR $39
ENCODING 71
SWIDTH 545 0
DWIDTH 6 0
BBX 6 11 0 -2
BITMAP
00
00
78
80
80
B8
88
88
78
00
00
ENDCHAR

STARTCHAR $40
ENCODING 72
SWIDTH 545 0
DWIDTH 6 0
BBX 6 11 0 -2
BITMAP
00
00
88
88
88
F8
88
88
88
00
00
ENDCHAR

STARTCHAR $41
ENCODING 73
SWIDTH 545 0
DWIDTH 6 0
BBX 6 11 0 -2
BITMAP
00
00
70
20
20
20
20
20
70
00
00
ENDCHAR

STARTCHAR $42
ENCODING 74
SWIDTH 545 0
DWIDTH 6 0
BBX 6 11 0 -2
BITMAP
00
00
78
08
08
08
08
08
70
00
00
ENDCHAR

STARTCHAR $43
ENCODING 75
SWIDTH 545 0
DWIDTH 6 0
BBX 6 11 0 -2
BITMAP
00
00
88
90
A0
C0
A0
90
88
00
00
ENDCHAR

STARTCHAR $44
ENCODING 76
SWIDTH 545 0
DWIDTH 6 0
BBX 6 11 0 -2
BITMAP
00
00
80
80
80
80
80
80
F8
00
00
ENDCHAR

STARTCHAR $45
ENCODING 77
SWIDTH 545 0
DWIDTH 6 0
BBX 6 11 0 -2
BITMAP
00
00
88
D8
A8
88
88
88
88
00
00
ENDCHAR

STARTCHAR $46
ENCODING 78
SWIDTH 545 0
DWIDTH 6 0
BBX 6 11 0 -2
BITMAP
00
00
88
C8
A8
98
88
88
88
00
00
ENDCHAR

STARTCHAR $47
ENCODING 79
SWIDTH 545 0
DWIDTH 6 0
BBX 6 11 0 -2
BITMAP
00
00
70
88
88
88
88
88
70
00
00
ENDCHAR

STARTCHAR $48
ENCODING 80
SWIDTH 545 0
DWIDTH 6 0
BBX 6 11 0 -2
BITMAP
00
00
F0
88
88
F0
80
80
80
00
00
ENDCHAR

STARTCHAR $49
ENCODING 81
SWIDTH 545 0
DWIDTH 6 0
BBX 6 11 0 -2
BITMAP
00
00
70
88
88
88
A8
98
70
08
00
ENDCHAR

STARTCHAR $50
ENCODING 82
SWIDTH 545 0
DWIDTH 6 0
BBX 6 11 0 -2
BITMAP
00
00
F0
88
88
F0
88
88
88
00
00
ENDCHAR

STARTCHAR $51
ENCODING 83
SWIDTH 545 0
DWIDTH 6 0
BBX 6 11 0 -2
BITMAP
00
00
78
80
80
70
08
08
F0
00
00
ENDCHAR

STARTCHAR $52
ENCODING 84
SWIDTH 545 0
DWIDTH 6 0
BBX 6 11 0 -2
BITMAP
00
00
F8
20
20
20
20
20
20
00
00
ENDCHAR

STARTCHAR $53
ENCODING 85
SWIDTH 545 0
DWIDTH 6 0
BBX 6 11 0 -2
BITMAP
00
00
88
88
88
88
88
88
70
00
00
ENDCHAR

STARTCHAR $54
ENCODING 86
SWIDTH 545 0
DWIDTH 6 0
BBX 6 11 0 -2
BITMAP
00
00
88
88
88
88
88
50
20
00
00
ENDCHAR

STARTCHAR $55
ENCODING 87
SWIDTH 545 0
DWIDTH 6 0
BBX 6 11 0 -2
BITMAP
00
00
88
88
88
88
A8
D8
88
00
00
ENDCHAR

STARTCHAR $56
ENCODING 88
SWIDTH 545 0
DWIDTH 6 0
BBX 6 11 0 -2
BITMAP
00
00
88
88
50
20
50
88
88
00
00
ENDCHAR

STARTCHAR $57
ENCODING 89
SWIDTH 545 0
DWIDTH 6 0
BBX 6 11 0 -2
BITMAP
00
00
88
88
88
50
20
20
20
00
00
ENDCHAR

STARTCHAR $58
ENCODING 90
SWIDTH 545 0
DWIDTH 6 0
BBX 6 11 0 -2
BITMAP
00
00
F8
08
10
20
40
80
F8
00
00
ENDCHAR

STARTCHAR $59
ENCODING 91
SWIDTH 545 0
DWIDTH 6 0
BBX 6 11 0 -2
BITMAP
00
30
20
20
20
20
20
20
20
30
00
ENDCHAR

STARTCHAR $60
ENCODING 92
SWIDTH 545 0
DWIDTH 6 0
BBX 6 11 0 -2
BITMAP
00
40
40
20
20
10
10
08
08
04
04
ENDCHAR

STARTCHAR $61
ENCODING 93
SWIDTH 545 0
DWIDTH 6 0
BBX 6 11 0 -2
BITMAP
00
60
20
20
20
20
20
20
20
60
00
ENDCHAR

STARTCHAR $62
ENCODING 94
SWIDTH 545 0
DWIDTH 6 0
BBX 6 11 0 -2
BITMAP
00
00
20
50
88
00
00
00
00
00
00
ENDCHAR

STARTCHAR $63
ENCODING 95
SWIDTH 545 0
DWIDTH 6 0
BBX 6 11 0 -2
BITMAP
00
00
00
00
00
00
00
00
00
FC
00
ENDCHAR

STARTCHAR $64
ENCODING 96
SWIDTH 545 0
DWIDTH 6 0
BBX 6 11 0 -2
BITMAP
00
40
20
10
00
00
00
00
00
00
00
ENDCHAR

STARTCHAR $65
ENCODING 97
SWIDTH 545 0
DWIDTH 6 0
BBX 6 11 0 -2
BITMAP
00
00
00
00
78
88
88
88
78
00
00
ENDCHAR

STARTCHAR $66
ENCODING 98
SWIDTH 545 0
DWIDTH 6 0
BBX 6 11 0 -2
BITMAP
00
00
80
80
F0
88
88
88
F0
00
00
ENDCHAR

STARTCHAR $67
ENCODING 99
SWIDTH 545 0
DWIDTH 6 0
BBX 6 11 0 -2
BITMAP
00
00
00
00
78
80
80
80
78
00
00
ENDCHAR

STARTCHAR $68
ENCODING 100
SWIDTH 545 0
DWIDTH 6 0
BBX 6 11 0 -2
BITMAP
00
00
08
08
78
88
88
88
78
00
00
ENDCHAR

STARTCHAR $69
ENCODING 101
SWIDTH 545 0
DWIDTH 6 0
BBX 6 11 0 -2
BITMAP
00
00
00
00
70
88
F8
80
78
00
00
ENDCHAR

STARTCHAR $70
ENCODING 102
SWIDTH 545 0
DWIDTH 6 0
BBX 6 11 0 -2
BITMAP
00
00
30
40
40
70
40
40
40
00
00
ENDCHAR

STARTCHAR $71
ENCODING 103
SWIDTH 545 0
DWIDTH 6 0
BBX 6 11 0 -2
BITMAP
00
00
00
00
78
88
88
88
78
08
70
ENDCHAR

STARTCHAR $72
ENCODING 104
SWIDTH 545 0
DWIDTH 6 0
BBX 6 11 0 -2
BITMAP
00
00
80
80
F0
88
88
88
88
00
00
ENDCHAR

STARTCHAR $73
ENCODING 105
SWIDTH 545 0
DWIDTH 6 0
BBX 6 11 0 -2
BITMAP
00
00
20
00
60
20
20
20
30
00
00
ENDCHAR

STARTCHAR $74
ENCODING 106
SWIDTH 545 0
DWIDTH 6 0
BBX 6 11 0 -2
BITMAP
00
00
20
00
60
20
20
20
20
20
C0
ENDCHAR

STARTCHAR $75
ENCODING 107
SWIDTH 545 0
DWIDTH 6 0
BBX 6 11 0 -2
BITMAP
00
00
80
80
90
A0
E0
90
88
00
00
ENDCHAR

STARTCHAR $76
ENCODING 108
SWIDTH 545 0
DWIDTH 6 0
BBX 6 11 0 -2
BITMAP
00
00
60
20
20
20
20
20
30
00
00
ENDCHAR

STARTCHAR $77
ENCODING 109
SWIDTH 545 0
DWIDTH 6 0
BBX 6 11 0 -2
BITMAP
00
00
00
00
F0
A8
A8
A8
A8
00
00
ENDCHAR

STARTCHAR $78
ENCODING 110
SWIDTH 545 0
DWIDTH 6 0
BBX 6 11 0 -2
BITMAP
00
00
00
00
F0
88
88
88
88
00
00
ENDCHAR

STARTCHAR $79
ENCODING 111
SWIDTH 545 0
DWIDTH 6 0
BBX 6 11 0 -2
BITMAP
00
00
00
00
70
88
88
88
70
00
00
ENDCHAR

STARTCHAR $80
ENCODING 112
SWIDTH 545 0
DWIDTH 6 0
BBX 6 11 0 -2
BITMAP
00
00
00
00
F0
88
88
88
F0
80
80
ENDCHAR

STARTCHAR $81
ENCODING 113
SWIDTH 545 0
DWIDTH 6 0
BBX 6 11 0 -2
BITMAP
00
00
00
00
78
88
88
88
78
08
08
ENDCHAR

STARTCHAR $82
ENCODING 114
SWIDTH 545 0
DWIDTH 6 0
BBX 6 11 0 -2
BITMAP
00
00
00
00
F0
88
80
80
80
00
00
ENDCHAR

STARTCHAR $83
ENCODING 115
SWIDTH 545 0
DWIDTH 6 0
BBX 6 11 0 -2
BITMAP
00
00
00
00
78
80
70
08
F0
00
00
ENDCHAR

STARTCHAR $84
ENCODING 116
SWIDTH 545 0
DWIDTH 6 0
BBX 6 11 0 -2
BITMAP
00
00
20
20
70
20
20
20
30
00
00
ENDCHAR

STARTCHAR $85
ENCODING 117
SWIDTH 545 0
DWIDTH 6 0
BBX 6 11 0 -2
BITMAP
00
00
00
00
88
88
88
88
78
00
00
ENDCHAR

STARTCHAR $86
ENCODING 118
SWIDTH 545 0
DWIDTH 6 0
BBX 6 11 0 -2
BITMAP
00
00
00
00
88
88
88
50
20
00
00
ENDCHAR

STARTCHAR $87
ENCODING 119
SWIDTH 545 0
DWIDTH 6 0
BBX 6 11 0 -2
BITMAP
00
00
00
00
A8
A8
A8
A8
50
00
00
ENDCHAR

STARTCHAR $88
ENCODING 120
SWIDTH 545 0
DWIDTH 6 0
BBX 6 11 0 -2
BITMAP
00
00
00
00
88
50
20
50
88
00
00
ENDCHAR

STARTCHAR $89
ENCODING 121
SWIDTH 545 0
DWIDTH 6 0
BBX 6 11 0 -2
BITMAP
00
00
00
00
88
88
88
88
78
08
70
ENDCHAR

STARTCHAR $90
ENCODING 122
SWIDTH 545 0
DWIDTH 6 0
BBX 6 11 0 -2
BITMAP
00
00
00
00
F8
10
20
40
F8
00
00
ENDCHAR

STARTCHAR $91
ENCODING 123
SWIDTH 545 0
DWIDTH 6 0
BBX 6 11 0 -2
BITMAP
10
20
20
20
20
40
20
20
20
20
10
ENDCHAR

STARTCHAR $92
ENCODING 124
SWIDTH 545 0
DWIDTH 6 0
BBX 6 11 0 -2
BITMAP
00
20
20
20
20
20
20
20
20
20
00
ENDCHAR

STARTCHAR $93
ENCODING 125
SWIDTH 545 0
DWIDTH 6 0
BBX 6 11 0 -2
BITMAP
40
20
20
20
20
10
20
20
20
20
40
ENDCHAR

STARTCHAR $94
ENCODING 126
SWIDTH 545 0
DWIDTH 6 0
BBX 6 11 0 -2
BITMAP
00
00
00
00
64
98
00
00
00
00
00
ENDCHAR

STARTCHAR $95
ENCODING 127
SWIDTH 545 0
DWIDTH 6 0
BBX 6 11 0 -2
BITMAP
00
00
00
00
00
00
00
00
00
00
00
ENDCHAR

STARTCHAR $96
ENCODING 128
SWIDTH 545 0
DWIDTH 6 0
BBX 6 11 0 -2
BITMAP
00
00
00
00
00
00
00
00
00
00
00
ENDCHAR

STARTCHAR $97
ENCODING 129
SWIDTH 545 0
DWIDTH 6 0
BBX 6 11 0 -2
BITMAP
00
00
00
00
00
00
00
00
00
00
00
ENDCHAR

STARTCHAR $98
ENCODING 130
SWIDTH 545 0
DWIDTH 6 0
BBX 6 11 0 -2
BITMAP
00
00
00
00
00
00
00
40
40
80
00
ENDCHAR

STARTCHAR $99
ENCODING 131
SWIDTH 545 0
DWIDTH 6 0
BBX 6 11 0 -2
BITMAP
18
20
20
20
70
20
20
20
20
20
C0
ENDCHAR

STARTCHAR $100
ENCODING 132
SWIDTH 545 0
DWIDTH 6 0
BBX 6 11 0 -2
BITMAP
00
00
00
00
00
00
00
50
50
A0
00
ENDCHAR

STARTCHAR $101
ENCODING 133
SWIDTH 545 0
DWIDTH 6 0
BBX 6 11 0 -2
BITMAP
00
00
00
00
00
00
00
00
A8
00
00
ENDCHAR

STARTCHAR $102
ENCODING 134
SWIDTH 545 0
DWIDTH 6 0
BBX 6 11 0 -2
BITMAP
00
00
20
70
20
20
20
00
00
00
00
ENDCHAR

STARTCHAR $103
ENCODING 135
SWIDTH 545 0
DWIDTH 6 0
BBX 6 11 0 -2
BITMAP
00
00
20
70
20
70
20
00
00
00
00
ENDCHAR

STARTCHAR $104
ENCODING 136
SWIDTH 545 0
DWIDTH 6 0
BBX 6 11 0 -2
BITMAP
00
20
50
00
00
00
00
00
00
00
00
ENDCHAR

STARTCHAR $105
ENCODING 137
SWIDTH 545 0
DWIDTH 6 0
BBX 6 11 0 -2
BITMAP
00
00
40
A8
50
20
48
B4
48
00
00
ENDCHAR

STARTCHAR $106
ENCODING 138
SWIDTH 545 0
DWIDTH 6 0
BBX 6 11 0 -2
BITMAP
50
20
70
88
80
70
08
88
70
00
00
ENDCHAR

STARTCHAR $107
ENCODING 139
SWIDTH 545 0
DWIDTH 6 0
BBX 6 11 0 -2
BITMAP
00
00
00
00
00
40
80
80
40
00
00
ENDCHAR

STARTCHAR $108
ENCODING 140
SWIDTH 545 0
DWIDTH 6 0
BBX 6 11 0 -2
BITMAP
00
00
78
A0
A0
B0
A0
A0
78
00
00
ENDCHAR

STARTCHAR $109
ENCODING 141
SWIDTH 545 0
DWIDTH 6 0
BBX 6 11 0 -2
BITMAP
00
00
00
00
00
00
00
00
00
00
00
ENDCHAR

STARTCHAR $110
ENCODING 142
SWIDTH 545 0
DWIDTH 6 0
BBX 6 11 0 -2
BITMAP
00
00
00
00
00
00
00
00
00
00
00
ENDCHAR

STARTCHAR $111
ENCODING 143
SWIDTH 545 0
DWIDTH 6 0
BBX 6 11 0 -2
BITMAP
00
00
00
00
00
00
00
00
00
00
00
ENDCHAR

STARTCHAR $112
ENCODING 144
SWIDTH 545 0
DWIDTH 6 0
BBX 6 11 0 -2
BITMAP
00
00
00
00
00
00
00
00
00
00
00
ENDCHAR

STARTCHAR $113
ENCODING 145
SWIDTH 545 0
DWIDTH 6 0
BBX 6 11 0 -2
BITMAP
00
00
10
20
20
00
00
00
00
00
00
ENDCHAR

STARTCHAR $114
ENCODING 146
SWIDTH 545 0
DWIDTH 6 0
BBX 6 11 0 -2
BITMAP
00
00
10
10
20
00
00
00
00
00
00
ENDCHAR

STARTCHAR $115
ENCODING 147
SWIDTH 545 0
DWIDTH 6 0
BBX 6 11 0 -2
BITMAP
00
00
28
50
50
00
00
00
00
00
00
ENDCHAR

STARTCHAR $116
ENCODING 148
SWIDTH 545 0
DWIDTH 6 0
BBX 6 11 0 -2
BITMAP
00
00
28
28
50
00
00
00
00
00
00
ENDCHAR

STARTCHAR $117
ENCODING 149
SWIDTH 545 0
DWIDTH 6 0
BBX 6 11 0 -2
BITMAP
00
00
00
70
F8
F8
F8
70
00
00
00
ENDCHAR

STARTCHAR $118
ENCODING 150
SWIDTH 545 0
DWIDTH 6 0
BBX 6 11 0 -2
BITMAP
00
00
00
00
00
70
00
00
00
00
00
ENDCHAR

STARTCHAR $119
ENCODING 151
SWIDTH 545 0
DWIDTH 6 0
BBX 6 11 0 -2
BITMAP
00
00
00
00
00
FC
00
00
00
00
00
ENDCHAR

STARTCHAR $120
ENCODING 152
SWIDTH 545 0
DWIDTH 6 0
BBX 6 11 0 -2
BITMAP
00
68
B0
00
00
00
00
00
00
00
00
ENDCHAR

STARTCHAR $121
ENCODING 153
SWIDTH 545 0
DWIDTH 6 0
BBX 6 11 0 -2
BITMAP
00
00
F4
5C
5C
00
00
00
00
00
00
ENDCHAR

STARTCHAR $122
ENCODING 154
SWIDTH 545 0
DWIDTH 6 0
BBX 6 11 0 -2
BITMAP
00
50
20
00
78
80
70
08
F0
00
00
ENDCHAR

STARTCHAR $123
ENCODING 155
SWIDTH 545 0
DWIDTH 6 0
BBX 6 11 0 -2
BITMAP
00
00
00
00
00
80
40
40
80
00
00
ENDCHAR

STARTCHAR $124
ENCODING 156
SWIDTH 545 0
DWIDTH 6 0
BBX 6 11 0 -2
BITMAP
00
00
00
00
50
A8
B8
A0
58
00
00
ENDCHAR

STARTCHAR $125
ENCODING 157
SWIDTH 545 0
DWIDTH 6 0
BBX 6 11 0 -2
BITMAP
00
00
00
00
00
00
00
00
00
00
00
ENDCHAR

STARTCHAR $126
ENCODING 158
SWIDTH 545 0
DWIDTH 6 0
BBX 6 11 0 -2
BITMAP
00
00
00
00
00
00
00
00
00
00
00
ENDCHAR

STARTCHAR $127
ENCODING 159
SWIDTH 545 0
DWIDTH 6 0
BBX 6 11 0 -2
BITMAP
50
00
88
88
88
50
20
20
20
00
00
ENDCHAR

STARTCHAR $128
ENCODING 160
SWIDTH 545 0
DWIDTH 6 0
BBX 6 11 0 -2
BITMAP
00
00
00
00
00
00
00
00
00
00
00
ENDCHAR

STARTCHAR $129
ENCODING 161
SWIDTH 545 0
DWIDTH 6 0
BBX 6 11 0 -2
BITMAP
00
00
10
00
10
10
10
10
10
00
00
ENDCHAR

STARTCHAR $130
ENCODING 162
SWIDTH 545 0
DWIDTH 6 0
BBX 6 11 0 -2
BITMAP
00
00
00
20
78
A0
A0
A0
78
20
00
ENDCHAR

STARTCHAR $131
ENCODING 163
SWIDTH 545 0
DWIDTH 6 0
BBX 6 11 0 -2
BITMAP
00
60
90
80
E0
80
80
88
F0
00
00
ENDCHAR

STARTCHAR $132
ENCODING 164
SWIDTH 545 0
DWIDTH 6 0
BBX 6 11 0 -2
BITMAP
00
00
00
00
88
70
50
70
88
00
00
ENDCHAR

STARTCHAR $133
ENCODING 165
SWIDTH 545 0
DWIDTH 6 0
BBX 6 11 0 -2
BITMAP
00
00
88
50
F8
20
F8
20
20
00
00
ENDCHAR

STARTCHAR $134
ENCODING 166
SWIDTH 545 0
DWIDTH 6 0
BBX 6 11 0 -2
BITMAP
00
20
20
20
20
00
20
20
20
20
00
ENDCHAR

STARTCHAR $135
ENCODING 167
SWIDTH 545 0
DWIDTH 6 0
BBX 6 11 0 -2
BITMAP
30
48
40
20
50
48
28
10
08
48
30
ENDCHAR

STARTCHAR $136
ENCODING 168
SWIDTH 545 0
DWIDTH 6 0
BBX 6 11 0 -2
BITMAP
00
00
50
00
00
00
00
00
00
00
00
ENDCHAR

STARTCHAR $137
ENCODING 169
SWIDTH 545 0
DWIDTH 6 0
BBX 6 11 0 -2
BITMAP
00
00
E0
10
68
88
68
10
E0
00
00
ENDCHAR

STARTCHAR $138
ENCODING 170
SWIDTH 545 0
DWIDTH 6 0
BBX 6 11 0 -2
BITMAP
38
48
48
38
00
78
00
00
00
00
00
ENDCHAR

STARTCHAR $139
ENCODING 171
SWIDTH 545 0
DWIDTH 6 0
BBX 6 11 0 -2
BITMAP
00
00
00
00
00
48
90
90
48
00
00
ENDCHAR

STARTCHAR $140
ENCODING 172
SWIDTH 545 0
DWIDTH 6 0
BBX 6 11 0 -2
BITMAP
00
00
00
00
00
F8
08
08
00
00
00
ENDCHAR

STARTCHAR $141
ENCODING 173
SWIDTH 545 0
DWIDTH 6 0
BBX 6 11 0 -2
BITMAP
00
00
00
00
00
F8
00
00
00
00
00
ENDCHAR

STARTCHAR $142
ENCODING 174
SWIDTH 545 0
DWIDTH 6 0
BBX 6 11 0 -2
BITMAP
00
00
E0
10
C8
A8
C8
B0
00
00
00
ENDCHAR

STARTCHAR $143
ENCODING 175
SWIDTH 545 0
DWIDTH 6 0
BBX 6 11 0 -2
BITMAP
00
00
70
00
00
00
00
00
00
00
00
ENDCHAR

STARTCHAR $144
ENCODING 176
SWIDTH 545 0
DWIDTH 6 0
BBX 6 11 0 -2
BITMAP
00
30
48
48
30
00
00
00
00
00
00
ENDCHAR

STARTCHAR $145
ENCODING 177
SWIDTH 545 0
DWIDTH 6 0
BBX 6 11 0 -2
BITMAP
00
00
00
20
20
F8
20
20
F8
00
00
ENDCHAR

STARTCHAR $146
ENCODING 178
SWIDTH 545 0
DWIDTH 6 0
BBX 6 11 0 -2
BITMAP
60
10
20
70
00
00
00
00
00
00
00
ENDCHAR

STARTCHAR $147
ENCODING 179
SWIDTH 545 0
DWIDTH 6 0
BBX 6 11 0 -2
BITMAP
60
10
30
10
60
00
00
00
00
00
00
ENDCHAR

STARTCHAR $148
ENCODING 180
SWIDTH 545 0
DWIDTH 6 0
BBX 6 11 0 -2
BITMAP
00
18
30
00
00
00
00
00
00
00
00
ENDCHAR

STARTCHAR $149
ENCODING 181
SWIDTH 545 0
DWIDTH 6 0
BBX 6 11 0 -2
BITMAP
00
00
00
00
90
90
90
90
E8
80
80
ENDCHAR

STARTCHAR $150
ENCODING 182
SWIDTH 545 0
DWIDTH 6 0
BBX 6 11 0 -2
BITMAP
00
78
A8
A8
A8
78
28
28
28
00
00
ENDCHAR

STARTCHAR $151
ENCODING 183
SWIDTH 545 0
DWIDTH 6 0
BBX 6 11 0 -2
BITMAP
00
00
00
00
00
30
30
00
00
00
00
ENDCHAR

STARTCHAR $152
ENCODING 184
SWIDTH 545 0
DWIDTH 6 0
BBX 6 11 0 -2
BITMAP
00
00
00
00
00
00
00
00
70
30
60
ENDCHAR

STARTCHAR $153
ENCODING 185
SWIDTH 545 0
DWIDTH 6 0
BBX 6 11 0 -2
BITMAP
60
20
20
70
00
00
00
00
00
00
00
ENDCHAR

STARTCHAR $154
ENCODING 186
SWIDTH 545 0
DWIDTH 6 0
BBX 6 11 0 -2
BITMAP
30
48
48
30
00
78
00
00
00
00
00
ENDCHAR

STARTCHAR $155
ENCODING 187
SWIDTH 545 0
DWIDTH 6 0
BBX 6 11 0 -2
BITMAP
00
00
00
00
00
90
48
48
90
00
00
ENDCHAR

STARTCHAR $156
ENCODING 188
SWIDTH 545 0
DWIDTH 6 0
BBX 6 11 0 -2
BITMAP
C0
40
44
E8
10
28
58
B8
08
00
00
ENDCHAR

STARTCHAR $157
ENCODING 189
SWIDTH 545 0
DWIDTH 6 0
BBX 6 11 0 -2
BITMAP
C0
40
44
E8
10
38
44
88
1C
00
00
ENDCHAR

STARTCHAR $158
ENCODING 190
SWIDTH 545 0
DWIDTH 6 0
BBX 6 11 0 -2
BITMAP
C0
20
64
28
D0
28
58
B8
08
00
00
ENDCHAR

STARTCHAR $159
ENCODING 191
SWIDTH 545 0
DWIDTH 6 0
BBX 6 11 0 -2
BITMAP
00
00
20
00
20
40
80
88
70
00
00
ENDCHAR

STARTCHAR $160
ENCODING 192
SWIDTH 545 0
DWIDTH 6 0
BBX 6 11 0 -2
BITMAP
40
20
70
88
88
F8
88
88
88
00
00
ENDCHAR

STARTCHAR $161
ENCODING 193
SWIDTH 545 0
DWIDTH 6 0
BBX 6 11 0 -2
BITMAP
10
20
70
88
88
F8
88
88
88
00
00
ENDCHAR

STARTCHAR $162
ENCODING 194
SWIDTH 545 0
DWIDTH 6 0
BBX 6 11 0 -2
BITMAP
20
50
00
70
88
88
F8
88
88
00
00
ENDCHAR

STARTCHAR $163
ENCODING 195
SWIDTH 545 0
DWIDTH 6 0
BBX 6 11 0 -2
BITMAP
68
B0
00
70
88
88
F8
88
88
00
00
ENDCHAR

STARTCHAR $164
ENCODING 196
SWIDTH 545 0
DWIDTH 6 0
BBX 6 11 0 -2
BITMAP
50
00
70
88
88
F8
88
88
88
00
00
ENDCHAR

STARTCHAR $165
ENCODING 197
SWIDTH 545 0
DWIDTH 6 0
BBX 6 11 0 -2
BITMAP
20
50
20
70
88
88
F8
88
88
00
00
ENDCHAR

STARTCHAR $166
ENCODING 198
SWIDTH 545 0
DWIDTH 6 0
BBX 6 11 0 -2
BITMAP
00
00
78
A0
A0
F0
A0
A0
B8
00
00
ENDCHAR

STARTCHAR $167
ENCODING 199
SWIDTH 545 0
DWIDTH 6 0
BBX 6 11 0 -2
BITMAP
00
00
70
88
80
80
80
88
70
20
40
ENDCHAR

STARTCHAR $168
ENCODING 200
SWIDTH 545 0
DWIDTH 6 0
BBX 6 11 0 -2
BITMAP
40
20
F8
80
80
F0
80
80
F8
00
00
ENDCHAR

STARTCHAR $169
ENCODING 201
SWIDTH 545 0
DWIDTH 6 0
BBX 6 11 0 -2
BITMAP
10
20
F8
80
80
F0
80
80
F8
00
00
ENDCHAR

STARTCHAR $170
ENCODING 202
SWIDTH 545 0
DWIDTH 6 0
BBX 6 11 0 -2
BITMAP
20
50
F8
80
80
F0
80
80
F8
00
00
ENDCHAR

STARTCHAR $171
ENCODING 203
SWIDTH 545 0
DWIDTH 6 0
BBX 6 11 0 -2
BITMAP
50
00
F8
80
80
F0
80
80
F8
00
00
ENDCHAR

STARTCHAR $172
ENCODING 204
SWIDTH 545 0
DWIDTH 6 0
BBX 6 11 0 -2
BITMAP
20
10
00
20
20
20
20
20
20
00
00
ENDCHAR

STARTCHAR $173
ENCODING 205
SWIDTH 545 0
DWIDTH 6 0
BBX 6 11 0 -2
BITMAP
20
40
00
20
20
20
20
20
20
00
00
ENDCHAR

STARTCHAR $174
ENCODING 206
SWIDTH 545 0
DWIDTH 6 0
BBX 6 11 0 -2
BITMAP
20
50
00
20
20
20
20
20
20
00
00
ENDCHAR

STARTCHAR $175
ENCODING 207
SWIDTH 545 0
DWIDTH 6 0
BBX 6 11 0 -2
BITMAP
50
00
20
20
20
20
20
20
20
00
00
ENDCHAR

STARTCHAR $176
ENCODING 208
SWIDTH 545 0
DWIDTH 6 0
BBX 6 11 0 -2
BITMAP
00
00
70
48
48
E8
48
48
70
00
00
ENDCHAR

STARTCHAR $177
ENCODING 209
SWIDTH 545 0
DWIDTH 6 0
BBX 6 11 0 -2
BITMAP
68
B0
88
C8
A8
98
88
88
88
00
00
ENDCHAR

STARTCHAR $178
ENCODING 210
SWIDTH 545 0
DWIDTH 6 0
BBX 6 11 0 -2
BITMAP
40
20
70
88
88
88
88
88
70
00
00
ENDCHAR

STARTCHAR $179
ENCODING 211
SWIDTH 545 0
DWIDTH 6 0
BBX 6 11 0 -2
BITMAP
10
20
70
88
88
88
88
88
70
00
00
ENDCHAR

STARTCHAR $180
ENCODING 212
SWIDTH 545 0
DWIDTH 6 0
BBX 6 11 0 -2
BITMAP
20
50
00
70
88
88
88
88
70
00
00
ENDCHAR

STARTCHAR $181
ENCODING 213
SWIDTH 545 0
DWIDTH 6 0
BBX 6 11 0 -2
BITMAP
68
B0
70
88
88
88
88
88
70
00
00
ENDCHAR

STARTCHAR $182
ENCODING 214
SWIDTH 545 0
DWIDTH 6 0
BBX 6 11 0 -2
BITMAP
50
00
70
88
88
88
88
88
70
00
00
ENDCHAR

STARTCHAR $183
ENCODING 215
SWIDTH 545 0
DWIDTH 6 0
BBX 6 11 0 -2
BITMAP
00
00
00
88
50
20
50
88
00
00
00
ENDCHAR

STARTCHAR $184
ENCODING 216
SWIDTH 545 0
DWIDTH 6 0
BBX 6 11 0 -2
BITMAP
00
00
70
88
98
A8
C8
88
70
00
00
ENDCHAR

STARTCHAR $185
ENCODING 217
SWIDTH 545 0
DWIDTH 6 0
BBX 6 11 0 -2
BITMAP
40
20
88
88
88
88
88
88
70
00
00
ENDCHAR

STARTCHAR $186
ENCODING 218
SWIDTH 545 0
DWIDTH 6 0
BBX 6 11 0 -2
BITMAP
10
20
88
88
88
88
88
88
70
00
00
ENDCHAR

STARTCHAR $187
ENCODING 219
SWIDTH 545 0
DWIDTH 6 0
BBX 6 11 0 -2
BITMAP
10
20
88
88
88
88
88
88
70
00
00
ENDCHAR

STARTCHAR $188
ENCODING 220
SWIDTH 545 0
DWIDTH 6 0
BBX 6 11 0 -2
BITMAP
50
00
88
88
88
88
88
88
70
00
00
ENDCHAR

STARTCHAR $189
ENCODING 221
SWIDTH 545 0
DWIDTH 6 0
BBX 6 11 0 -2
BITMAP
10
20
88
88
88
50
20
20
20
00
00
ENDCHAR

STARTCHAR $190
ENCODING 222
SWIDTH 545 0
DWIDTH 6 0
BBX 6 11 0 -2
BITMAP
00
00
80
F0
88
88
F0
80
80
00
00
ENDCHAR

STARTCHAR $191
ENCODING 223
SWIDTH 545 0
DWIDTH 6 0
BBX 6 11 0 -2
BITMAP
00
30
48
88
90
90
88
88
B0
80
00
ENDCHAR

STARTCHAR $192
ENCODING 224
SWIDTH 545 0
DWIDTH 6 0
BBX 6 11 0 -2
BITMAP
00
20
10
00
78
88
88
88
78
00
00
ENDCHAR

STARTCHAR $193
ENCODING 225
SWIDTH 545 0
DWIDTH 6 0
BBX 6 11 0 -2
BITMAP
00
10
20
00
78
88
88
88
78
00
00
ENDCHAR

STARTCHAR $194
ENCODING 226
SWIDTH 545 0
DWIDTH 6 0
BBX 6 11 0 -2
BITMAP
00
20
50
00
78
88
88
88
78
00
00
ENDCHAR

STARTCHAR $195
ENCODING 227
SWIDTH 545 0
DWIDTH 6 0
BBX 6 11 0 -2
BITMAP
00
68
B0
00
78
88
88
88
78
00
00
ENDCHAR

STARTCHAR $196
ENCODING 228
SWIDTH 545 0
DWIDTH 6 0
BBX 6 11 0 -2
BITMAP
00
00
50
00
78
88
88
88
78
00
00
ENDCHAR

STARTCHAR $197
ENCODING 229
SWIDTH 545 0
DWIDTH 6 0
BBX 6 11 0 -2
BITMAP
00
20
50
20
78
88
88
88
78
00
00
ENDCHAR

STARTCHAR $198
ENCODING 230
SWIDTH 545 0
DWIDTH 6 0
BBX 6 11 0 -2
BITMAP
00
00
00
00
70
A8
B8
A0
78
00
00
ENDCHAR

STARTCHAR $199
ENCODING 231
SWIDTH 545 0
DWIDTH 6 0
BBX 6 11 0 -2
BITMAP
00
00
00
00
78
80
80
80
78
20
40
ENDCHAR

STARTCHAR $200
ENCODING 232
SWIDTH 545 0
DWIDTH 6 0
BBX 6 11 0 -2
BITMAP
00
40
20
00
70
88
F8
80
70
00
00
ENDCHAR

STARTCHAR $201
ENCODING 233
SWIDTH 545 0
DWIDTH 6 0
BBX 6 11 0 -2
BITMAP
00
10
20
00
70
88
F8
80
70
00
00
ENDCHAR

STARTCHAR $202
ENCODING 234
SWIDTH 545 0
DWIDTH 6 0
BBX 6 11 0 -2
BITMAP
00
20
50
00
70
88
F8
80
70
00
00
ENDCHAR

STARTCHAR $203
ENCODING 235
SWIDTH 545 0
DWIDTH 6 0
BBX 6 11 0 -2
BITMAP
00
00
50
00
70
88
F8
80
70
00
00
ENDCHAR

STARTCHAR $204
ENCODING 236
SWIDTH 545 0
DWIDTH 6 0
BBX 6 11 0 -2
BITMAP
00
20
10
00
20
20
20
20
20
00
00
ENDCHAR

STARTCHAR $205
ENCODING 237
SWIDTH 545 0
DWIDTH 6 0
BBX 6 11 0 -2
BITMAP
00
20
40
00
20
20
20
20
20
00
00
ENDCHAR

STARTCHAR $206
ENCODING 238
SWIDTH 545 0
DWIDTH 6 0
BBX 6 11 0 -2
BITMAP
00
20
50
00
20
20
20
20
20
00
00
ENDCHAR

STARTCHAR $207
ENCODING 239
SWIDTH 545 0
DWIDTH 6 0
BBX 6 11 0 -2
BITMAP
00
00
50
00
20
20
20
20
20
00
00
ENDCHAR

STARTCHAR $208
ENCODING 240
SWIDTH 545 0
DWIDTH 6 0
BBX 6 11 0 -2
BITMAP
00
60
60
10
78
88
88
88
70
00
00
ENDCHAR

STARTCHAR $209
ENCODING 241
SWIDTH 545 0
DWIDTH 6 0
BBX 6 11 0 -2
BITMAP
00
50
A0
00
F0
88
88
88
88
00
00
ENDCHAR

STARTCHAR $210
ENCODING 242
SWIDTH 545 0
DWIDTH 6 0
BBX 6 11 0 -2
BITMAP
00
40
20
00
70
88
88
88
70
00
00
ENDCHAR

STARTCHAR $211
ENCODING 243
SWIDTH 545 0
DWIDTH 6 0
BBX 6 11 0 -2
BITMAP
00
10
20
00
70
88
88
88
70
00
00
ENDCHAR

STARTCHAR $212
ENCODING 244
SWIDTH 545 0
DWIDTH 6 0
BBX 6 11 0 -2
BITMAP
00
20
50
00
70
88
88
88
70
00
00
ENDCHAR

STARTCHAR $213
ENCODING 245
SWIDTH 545 0
DWIDTH 6 0
BBX 6 11 0 -2
BITMAP
00
50
A0
00
70
88
88
88
70
00
00
ENDCHAR

STARTCHAR $214
ENCODING 246
SWIDTH 545 0
DWIDTH 6 0
BBX 6 11 0 -2
BITMAP
00
00
50
00
70
88
88
88
70
00
00
ENDCHAR

STARTCHAR $215
ENCODING 247
SWIDTH 545 0
DWIDTH 6 0
BBX 6 11 0 -2
BITMAP
00
00
00
20
00
F8
00
20
00
00
00
ENDCHAR

STARTCHAR $216
ENCODING 248
SWIDTH 545 0
DWIDTH 6 0
BBX 6 11 0 -2
BITMAP
00
00
00
00
70
98
A8
C8
70
00
00
ENDCHAR

STARTCHAR $217
ENCODING 249
SWIDTH 545 0
DWIDTH 6 0
BBX 6 11 0 -2
BITMAP
00
40
20
00
88
88
88
88
78
00
00
ENDCHAR

STARTCHAR $218
ENCODING 250
SWIDTH 545 0
DWIDTH 6 0
BBX 6 11 0 -2
BITMAP
00
10
20
00
88
88
88
88
78
00
00
ENDCHAR

STARTCHAR $219
ENCODING 251
SWIDTH 545 0
DWIDTH 6 0
BBX 6 11 0 -2
BITMAP
00
20
50
00
88
88
88
88
78
00
00
ENDCHAR

STARTCHAR $220
ENCODING 252
SWIDTH 545 0
DWIDTH 6 0
BBX 6 11 0 -2
BITMAP
00
00
50
00
88
88
88
88
78
00
00
ENDCHAR

STARTCHAR $221
ENCODING 253
SWIDTH 545 0
DWIDTH 6 0
BBX 6 11 0 -2
BITMAP
00
10
20
00
88
88
88
88
78
08
70
ENDCHAR

STARTCHAR $222
ENCODING 254
SWIDTH 545 0
DWIDTH 6 0
BBX 6 11 0 -2
BITMAP
00
00
80
80
F0
88
88
88
F0
80
80
ENDCHAR

STARTCHAR $223
ENCODING 255
SWIDTH 545 0
DWIDTH 6 0
BBX 6 11 0 -2
BITMAP
00
00
50
00
88
88
88
88
78
08
70
ENDCHAR

STARTCHAR char1984
ENCODING 1984
SWIDTH 545 0
DWIDTH 6 0
BBX 6 11 0 -2
BITMAP
00
00
00
00
00
00
00
00
FC
FC
00
ENDCHAR

STARTCHAR char1985
ENCODING 1985
SWIDTH 545 0
DWIDTH 6 0
BBX 6 11 0 -2
BITMAP
00
00
00
00
00
00
00
00
A8
54
00
ENDCHAR

STARTCHAR char1986
ENCODING 1986
SWIDTH 545 0
DWIDTH 6 0
BBX 6 11 0 -2
BITMAP
00
00
00
20
50
A8
50
20
00
00
00
ENDCHAR

STARTCHAR char1987
ENCODING 1987
SWIDTH 545 0
DWIDTH 6 0
BBX 6 11 0 -2
BITMAP
00
00
00
20
70
F8
70
20
00
00
00
ENDCHAR

STARTCHAR char7616
ENCODING 7616
SWIDTH 545 0
DWIDTH 6 0
BBX 6 11 0 -2
BITMAP
00
00
00
00
00
00
00
00
00
00
00
ENDCHAR

STARTCHAR char7617
ENCODING 7617
SWIDTH 545 0
DWIDTH 6 0
BBX 6 11 0 -2
BITMAP
00
00
00
00
00
00
00
00
00
00
00
ENDCHAR

STARTCHAR char11104
ENCODING 11104
SWIDTH 545 0
DWIDTH 6 0
BBX 6 11 0 -2
BITMAP
00
C0
C8
DC
C8
C8
C8
D0
E0
C0
C0
ENDCHAR

STARTCHAR char11105
ENCODING 11105
SWIDTH 545 0
DWIDTH 6 0
BBX 6 11 0 -2
BITMAP
00
80
80
80
F0
00
24
34
2C
24
00
ENDCHAR

STARTCHAR char11106
ENCODING 11106
SWIDTH 545 0
DWIDTH 6 0
BBX 6 11 0 -2
BITMAP
00
00
3C
40
4C
4C
40
4C
44
30
00
ENDCHAR

STARTCHAR char11107
ENCODING 11107
SWIDTH 545 0
DWIDTH 6 0
BBX 6 11 0 -2
BITMAP
00
00
F8
04
98
90
90
90
90
60
00
ENDCHAR

STARTCHAR char11108
ENCODING 11108
SWIDTH 545 0
DWIDTH 6 0
BBX 6 11 0 -2
BITMAP
00
30
48
48
48
FC
CC
CC
FC
78
00
ENDCHAR

STARTCHAR char11109
ENCODING 11136
SWIDTH 545 0
DWIDTH 6 0
BBX 6 11 0 -2
BITMAP
80
C0
E0
F0
F8
FC
F8
F0
E0
C0
80
ENDCHAR

STARTCHAR char11110
ENCODING 11137
SWIDTH 545 0
DWIDTH 6 0
BBX 6 11 0 -2
BITMAP
80
40
20
10
08
04
08
10
20
40
80
ENDCHAR

STARTCHAR char11111
ENCODING 11138
SWIDTH 545 0
DWIDTH 6 0
BBX 6 11 0 -2
BITMAP
04
0C
1C
3C
7C
FC
7C
3C
1C
0C
04
ENDCHAR

STARTCHAR char11112
ENCODING 11139
SWIDTH 545 0
DWIDTH 6 0
BBX 6 11 0 -2
BITMAP
04
08
10
20
40
80
40
20
10
08
04
ENDCHAR

ENDFONT
