STARTFONT 2.1
FONT -benis-lemon-medium-r-normal--10-110-75-75-m-50-ISO8859-1
SIZE 10 75 75
FONTBOUNDINGBOX 8 11 -1 -2
STARTPROPERTIES 26
FONTNAME_REGISTRY ""
FOUNDRY "artwiz"
FAMILY_NAME "lemon"
WEIGHT_NAME "medium"
SLANT "r"
SETWIDTH_NAME "normal"
ADD_STYLE_NAME ""
PIXEL_SIZE 10
POINT_SIZE 110
RESOLUTION_X 75
RESOLUTION_Y 75
SPACING "m"
AVERAGE_WIDTH 50
CHARSET_REGISTRY "ISO8859"
CHARSET_ENCODING "1"
OPYRIGHT "artwiz, fixed by aleczapka"
FACE_NAME "lemon"
WEIGHT 10
X_HEIGHT 6
QUAD_WIDTH 5
_ORIGINAL_FONT_NAME "lime"
_GBDFED_INFO "Edited with gbdfed 1.6."
CHARSET_COLLECTIONS "ISO8859-2 ISO8859-5 ISO8859-9 ISO8859-4 ISO10646-1"
DEFAULT_CHAR 52
FONT_DESCENT 2
FONT_ASCENT 8
ENDPROPERTIES
CHARS 448
STARTCHAR char32
ENCODING 32
SWIDTH 480 0
DWIDTH 5 0
BBX 0 0 0 0
BITMAP
ENDCHAR
STARTCHAR uni0021
ENCODING 33
SWIDTH 480 0
DWIDTH 5 0
BBX 1 6 2 0
BITMAP
80
80
80
80
00
80
ENDCHAR
STARTCHAR uni0022
ENCODING 34
SWIDTH 480 0
DWIDTH 5 0
BBX 3 3 1 4
BITMAP
A0
A0
A0
ENDCHAR
STARTCHAR uni0023
ENCODING 35
SWIDTH 480 0
DWIDTH 5 0
BBX 5 5 0 0
BITMAP
50
D8
50
D8
50
ENDCHAR
STARTCHAR uni0024
ENCODING 36
SWIDTH 480 0
DWIDTH 5 0
BBX 4 8 1 -1
BITMAP
20
70
A0
60
50
50
E0
40
ENDCHAR
STARTCHAR uni0025
ENCODING 37
SWIDTH 480 0
DWIDTH 5 0
BBX 4 6 1 0
BITMAP
90
90
20
40
90
90
ENDCHAR
STARTCHAR uni0026
ENCODING 38
SWIDTH 480 0
DWIDTH 5 0
BBX 5 6 0 0
BITMAP
40
A0
40
A8
90
68
ENDCHAR
STARTCHAR uni0027
ENCODING 39
SWIDTH 480 0
DWIDTH 5 0
BBX 1 3 2 4
BITMAP
80
80
80
ENDCHAR
STARTCHAR uni0028
ENCODING 40
SWIDTH 480 0
DWIDTH 5 0
BBX 3 8 2 -1
BITMAP
20
40
80
80
80
80
40
20
ENDCHAR
STARTCHAR uni0029
ENCODING 41
SWIDTH 480 0
DWIDTH 5 0
BBX 3 8 1 -1
BITMAP
80
40
20
20
20
20
40
80
ENDCHAR
STARTCHAR uni002A
ENCODING 42
SWIDTH 480 0
DWIDTH 5 0
BBX 4 5 1 0
BITMAP
90
60
F0
60
90
ENDCHAR
STARTCHAR uni002B
ENCODING 43
SWIDTH 480 0
DWIDTH 5 0
BBX 5 5 0 1
BITMAP
20
20
F8
20
20
ENDCHAR
STARTCHAR uni002C
ENCODING 44
SWIDTH 480 0
DWIDTH 5 0
BBX 2 3 1 -1
BITMAP
40
40
80
ENDCHAR
STARTCHAR uni002D
ENCODING 45
SWIDTH 480 0
DWIDTH 5 0
BBX 4 1 1 3
BITMAP
F0
ENDCHAR
STARTCHAR uni002E
ENCODING 46
SWIDTH 480 0
DWIDTH 5 0
BBX 1 2 2 0
BITMAP
80
80
ENDCHAR
STARTCHAR uni002F
ENCODING 47
SWIDTH 480 0
DWIDTH 5 0
BBX 4 8 1 -1
BITMAP
10
10
20
20
40
40
80
80
ENDCHAR
STARTCHAR uni0030
ENCODING 48
SWIDTH 480 0
DWIDTH 5 0
BBX 4 6 1 0
BITMAP
60
90
B0
D0
90
60
ENDCHAR
STARTCHAR uni0031
ENCODING 49
SWIDTH 480 0
DWIDTH 5 0
BBX 2 6 1 0
BITMAP
40
C0
40
40
40
40
ENDCHAR
STARTCHAR uni0032
ENCODING 50
SWIDTH 480 0
DWIDTH 5 0
BBX 4 6 1 0
BITMAP
E0
10
10
60
80
F0
ENDCHAR
STARTCHAR uni0033
ENCODING 51
SWIDTH 480 0
DWIDTH 5 0
BBX 4 6 1 0
BITMAP
E0
10
60
10
10
E0
ENDCHAR
STARTCHAR uni0034
ENCODING 52
SWIDTH 480 0
DWIDTH 5 0
BBX 4 6 1 0
BITMAP
90
90
90
70
10
10
ENDCHAR
STARTCHAR uni0035
ENCODING 53
SWIDTH 480 0
DWIDTH 5 0
BBX 4 6 1 0
BITMAP
F0
80
E0
10
10
E0
ENDCHAR
STARTCHAR uni0036
ENCODING 54
SWIDTH 480 0
DWIDTH 5 0
BBX 4 6 1 0
BITMAP
60
80
E0
90
90
60
ENDCHAR
STARTCHAR uni0037
ENCODING 55
SWIDTH 480 0
DWIDTH 5 0
BBX 4 6 1 0
BITMAP
F0
10
20
20
40
40
ENDCHAR
STARTCHAR uni0038
ENCODING 56
SWIDTH 480 0
DWIDTH 5 0
BBX 4 6 1 0
BITMAP
60
90
60
90
90
60
ENDCHAR
STARTCHAR uni0039
ENCODING 57
SWIDTH 480 0
DWIDTH 5 0
BBX 4 6 1 0
BITMAP
60
90
90
70
10
60
ENDCHAR
STARTCHAR uni003A
ENCODING 58
SWIDTH 480 0
DWIDTH 5 0
BBX 1 5 2 0
BITMAP
80
80
00
80
80
ENDCHAR
STARTCHAR uni003B
ENCODING 59
SWIDTH 480 0
DWIDTH 5 0
BBX 2 6 1 -1
BITMAP
40
40
00
40
40
80
ENDCHAR
STARTCHAR uni003C
ENCODING 60
SWIDTH 480 0
DWIDTH 5 0
BBX 3 5 1 0
BITMAP
20
40
80
40
20
ENDCHAR
STARTCHAR uni003D
ENCODING 61
SWIDTH 480 0
DWIDTH 5 0
BBX 3 3 1 2
BITMAP
E0
00
E0
ENDCHAR
STARTCHAR uni003E
ENCODING 62
SWIDTH 480 0
DWIDTH 5 0
BBX 3 5 2 0
BITMAP
80
40
20
40
80
ENDCHAR
STARTCHAR uni003F
ENCODING 63
SWIDTH 480 0
DWIDTH 5 0
BBX 3 6 1 0
BITMAP
E0
A0
20
40
00
40
ENDCHAR
STARTCHAR uni0040
ENCODING 64
SWIDTH 480 0
DWIDTH 5 0
BBX 4 6 1 0
BITMAP
60
90
B0
B0
80
70
ENDCHAR
STARTCHAR uni0041
ENCODING 65
SWIDTH 480 0
DWIDTH 5 0
BBX 4 6 1 0
BITMAP
60
90
90
F0
90
90
ENDCHAR
STARTCHAR uni0042
ENCODING 66
SWIDTH 480 0
DWIDTH 5 0
BBX 4 6 1 0
BITMAP
E0
90
E0
90
90
E0
ENDCHAR
STARTCHAR uni0043
ENCODING 67
SWIDTH 480 0
DWIDTH 5 0
BBX 4 6 1 0
BITMAP
70
80
80
80
80
70
ENDCHAR
STARTCHAR uni0044
ENCODING 68
SWIDTH 480 0
DWIDTH 5 0
BBX 4 6 1 0
BITMAP
E0
90
90
90
90
E0
ENDCHAR
STARTCHAR uni0045
ENCODING 69
SWIDTH 480 0
DWIDTH 5 0
BBX 4 6 1 0
BITMAP
F0
80
E0
80
80
F0
ENDCHAR
STARTCHAR uni0046
ENCODING 70
SWIDTH 480 0
DWIDTH 5 0
BBX 4 6 1 0
BITMAP
F0
80
E0
80
80
80
ENDCHAR
STARTCHAR uni0047
ENCODING 71
SWIDTH 480 0
DWIDTH 5 0
BBX 4 6 1 0
BITMAP
70
80
80
B0
90
70
ENDCHAR
STARTCHAR uni0048
ENCODING 72
SWIDTH 480 0
DWIDTH 5 0
BBX 4 6 1 0
BITMAP
90
90
F0
90
90
90
ENDCHAR
STARTCHAR uni0049
ENCODING 73
SWIDTH 480 0
DWIDTH 5 0
BBX 3 6 1 0
BITMAP
E0
40
40
40
40
E0
ENDCHAR
STARTCHAR uni004A
ENCODING 74
SWIDTH 480 0
DWIDTH 5 0
BBX 4 6 1 0
BITMAP
70
10
10
10
90
60
ENDCHAR
STARTCHAR uni004B
ENCODING 75
SWIDTH 480 0
DWIDTH 5 0
BBX 4 6 1 0
BITMAP
90
A0
C0
A0
90
90
ENDCHAR
STARTCHAR uni004C
ENCODING 76
SWIDTH 480 0
DWIDTH 5 0
BBX 4 6 1 0
BITMAP
80
80
80
80
80
F0
ENDCHAR
STARTCHAR uni004D
ENCODING 77
SWIDTH 480 0
DWIDTH 5 0
BBX 4 6 1 0
BITMAP
90
F0
90
90
90
90
ENDCHAR
STARTCHAR uni004E
ENCODING 78
SWIDTH 480 0
DWIDTH 5 0
BBX 4 6 1 0
BITMAP
90
D0
D0
B0
B0
90
ENDCHAR
STARTCHAR uni004F
ENCODING 79
SWIDTH 480 0
DWIDTH 5 0
BBX 4 6 1 0
BITMAP
60
90
90
90
90
60
ENDCHAR
STARTCHAR uni0050
ENCODING 80
SWIDTH 480 0
DWIDTH 5 0
BBX 4 6 1 0
BITMAP
E0
90
90
E0
80
80
ENDCHAR
STARTCHAR uni0051
ENCODING 81
SWIDTH 480 0
DWIDTH 5 0
BBX 4 7 1 -1
BITMAP
60
90
90
90
90
60
30
ENDCHAR
STARTCHAR uni0052
ENCODING 82
SWIDTH 480 0
DWIDTH 5 0
BBX 4 6 1 0
BITMAP
E0
90
90
E0
90
90
ENDCHAR
STARTCHAR uni0053
ENCODING 83
SWIDTH 480 0
DWIDTH 5 0
BBX 4 6 1 0
BITMAP
70
80
60
10
10
E0
ENDCHAR
STARTCHAR uni0054
ENCODING 84
SWIDTH 480 0
DWIDTH 5 0
BBX 5 6 0 0
BITMAP
F8
20
20
20
20
20
ENDCHAR
STARTCHAR uni0055
ENCODING 85
SWIDTH 480 0
DWIDTH 5 0
BBX 4 6 1 0
BITMAP
90
90
90
90
90
70
ENDCHAR
STARTCHAR uni0056
ENCODING 86
SWIDTH 480 0
DWIDTH 5 0
BBX 4 6 1 0
BITMAP
90
90
90
60
60
60
ENDCHAR
STARTCHAR uni0057
ENCODING 87
SWIDTH 480 0
DWIDTH 5 0
BBX 4 6 1 0
BITMAP
90
90
90
90
F0
90
ENDCHAR
STARTCHAR uni0058
ENCODING 88
SWIDTH 480 0
DWIDTH 5 0
BBX 4 6 1 0
BITMAP
90
90
60
90
90
90
ENDCHAR
STARTCHAR uni0059
ENCODING 89
SWIDTH 480 0
DWIDTH 5 0
BBX 5 6 0 0
BITMAP
88
88
50
20
20
20
ENDCHAR
STARTCHAR uni005A
ENCODING 90
SWIDTH 480 0
DWIDTH 5 0
BBX 4 6 1 0
BITMAP
F0
10
20
40
80
F0
ENDCHAR
STARTCHAR uni005B
ENCODING 91
SWIDTH 480 0
DWIDTH 5 0
BBX 3 8 1 -1
BITMAP
E0
80
80
80
80
80
80
E0
ENDCHAR
STARTCHAR uni005C
ENCODING 92
SWIDTH 480 0
DWIDTH 5 0
BBX 4 8 1 -1
BITMAP
80
80
40
40
20
20
10
10
ENDCHAR
STARTCHAR uni005D
ENCODING 93
SWIDTH 480 0
DWIDTH 5 0
BBX 3 8 1 -1
BITMAP
E0
20
20
20
20
20
20
E0
ENDCHAR
STARTCHAR uni005E
ENCODING 94
SWIDTH 480 0
DWIDTH 5 0
BBX 5 3 0 4
BITMAP
20
50
88
ENDCHAR
STARTCHAR uni005F
ENCODING 95
SWIDTH 480 0
DWIDTH 5 0
BBX 4 1 1 -1
BITMAP
F0
ENDCHAR
STARTCHAR uni0060
ENCODING 96
SWIDTH 480 0
DWIDTH 5 0
BBX 2 3 2 4
BITMAP
80
80
40
ENDCHAR
STARTCHAR uni0061
ENCODING 97
SWIDTH 480 0
DWIDTH 5 0
BBX 4 5 1 0
BITMAP
70
90
90
B0
50
ENDCHAR
STARTCHAR uni0062
ENCODING 98
SWIDTH 480 0
DWIDTH 5 0
BBX 4 7 1 0
BITMAP
80
80
E0
90
90
90
E0
ENDCHAR
STARTCHAR uni0063
ENCODING 99
SWIDTH 480 0
DWIDTH 5 0
BBX 4 5 1 0
BITMAP
70
80
80
80
70
ENDCHAR
STARTCHAR uni0064
ENCODING 100
SWIDTH 480 0
DWIDTH 5 0
BBX 4 7 1 0
BITMAP
10
10
70
90
90
B0
50
ENDCHAR
STARTCHAR uni0065
ENCODING 101
SWIDTH 480 0
DWIDTH 5 0
BBX 4 5 1 0
BITMAP
60
90
F0
80
70
ENDCHAR
STARTCHAR uni0066
ENCODING 102
SWIDTH 480 0
DWIDTH 5 0
BBX 3 7 2 0
BITMAP
60
80
E0
80
80
80
80
ENDCHAR
STARTCHAR uni0067
ENCODING 103
SWIDTH 480 0
DWIDTH 5 0
BBX 4 7 1 -2
BITMAP
70
90
90
B0
50
10
60
ENDCHAR
STARTCHAR uni0068
ENCODING 104
SWIDTH 480 0
DWIDTH 5 0
BBX 4 7 1 0
BITMAP
80
80
E0
90
90
90
90
ENDCHAR
STARTCHAR uni0069
ENCODING 105
SWIDTH 480 0
DWIDTH 5 0
BBX 2 7 2 0
BITMAP
40
00
C0
40
40
40
40
ENDCHAR
STARTCHAR uni006A
ENCODING 106
SWIDTH 480 0
DWIDTH 5 0
BBX 3 9 1 -2
BITMAP
20
00
60
20
20
20
20
20
C0
ENDCHAR
STARTCHAR uni006B
ENCODING 107
SWIDTH 480 0
DWIDTH 5 0
BBX 4 7 1 0
BITMAP
80
80
90
A0
E0
90
90
ENDCHAR
STARTCHAR uni006C
ENCODING 108
SWIDTH 480 0
DWIDTH 5 0
BBX 2 7 2 0
BITMAP
C0
40
40
40
40
40
40
ENDCHAR
STARTCHAR uni006D
ENCODING 109
SWIDTH 480 0
DWIDTH 5 0
BBX 4 5 1 0
BITMAP
90
F0
90
90
90
ENDCHAR
STARTCHAR uni006E
ENCODING 110
SWIDTH 480 0
DWIDTH 5 0
BBX 4 5 1 0
BITMAP
E0
90
90
90
90
ENDCHAR
STARTCHAR uni006F
ENCODING 111
SWIDTH 480 0
DWIDTH 5 0
BBX 4 5 1 0
BITMAP
60
90
90
90
60
ENDCHAR
STARTCHAR uni0070
ENCODING 112
SWIDTH 480 0
DWIDTH 5 0
BBX 4 7 1 -2
BITMAP
E0
90
90
90
E0
80
80
ENDCHAR
STARTCHAR uni0071
ENCODING 113
SWIDTH 480 0
DWIDTH 5 0
BBX 4 7 1 -2
BITMAP
70
90
90
90
70
10
10
ENDCHAR
STARTCHAR uni0072
ENCODING 114
SWIDTH 480 0
DWIDTH 5 0
BBX 4 5 1 0
BITMAP
B0
C0
80
80
80
ENDCHAR
STARTCHAR uni0073
ENCODING 115
SWIDTH 480 0
DWIDTH 5 0
BBX 4 5 1 0
BITMAP
70
80
60
10
E0
ENDCHAR
STARTCHAR uni0074
ENCODING 116
SWIDTH 480 0
DWIDTH 5 0
BBX 3 6 1 0
BITMAP
40
E0
40
40
40
20
ENDCHAR
STARTCHAR uni0075
ENCODING 117
SWIDTH 480 0
DWIDTH 5 0
BBX 4 5 1 0
BITMAP
90
90
90
90
70
ENDCHAR
STARTCHAR uni0076
ENCODING 118
SWIDTH 480 0
DWIDTH 5 0
BBX 4 5 1 0
BITMAP
90
90
90
60
60
ENDCHAR
STARTCHAR uni0077
ENCODING 119
SWIDTH 480 0
DWIDTH 5 0
BBX 4 5 1 0
BITMAP
90
90
90
F0
90
ENDCHAR
STARTCHAR uni0078
ENCODING 120
SWIDTH 480 0
DWIDTH 5 0
BBX 4 5 1 0
BITMAP
90
90
60
90
90
ENDCHAR
STARTCHAR uni0079
ENCODING 121
SWIDTH 480 0
DWIDTH 5 0
BBX 4 7 1 -2
BITMAP
90
90
90
90
70
10
60
ENDCHAR
STARTCHAR uni007A
ENCODING 122
SWIDTH 480 0
DWIDTH 5 0
BBX 4 5 1 0
BITMAP
F0
20
40
80
F0
ENDCHAR
STARTCHAR uni007B
ENCODING 123
SWIDTH 480 0
DWIDTH 5 0
BBX 3 8 1 -1
BITMAP
20
40
40
C0
C0
40
40
20
ENDCHAR
STARTCHAR uni007C
ENCODING 124
SWIDTH 480 0
DWIDTH 5 0
BBX 1 10 2 -2
BITMAP
80
80
80
80
80
80
80
80
80
80
ENDCHAR
STARTCHAR uni007D
ENCODING 125
SWIDTH 480 0
DWIDTH 5 0
BBX 3 8 2 -1
BITMAP
80
40
40
60
60
40
40
80
ENDCHAR
STARTCHAR uni007E
ENCODING 126
SWIDTH 480 0
DWIDTH 5 0
BBX 5 4 0 1
BITMAP
40
A8
A8
10
ENDCHAR
STARTCHAR char149
ENCODING 149
SWIDTH 480 0
DWIDTH 5 0
BBX 4 4 1 1
BITMAP
60
F0
F0
60
ENDCHAR
STARTCHAR char161
ENCODING 161
SWIDTH 480 0
DWIDTH 5 0
BBX 3 6 1 0
BITMAP
40
00
C0
40
40
60
ENDCHAR
STARTCHAR char162
ENCODING 162
SWIDTH 480 0
DWIDTH 5 0
BBX 4 7 0 -1
BITMAP
10
70
A0
A0
A0
70
40
ENDCHAR
STARTCHAR char163
ENCODING 163
SWIDTH 480 0
DWIDTH 5 0
BBX 5 7 0 0
BITMAP
30
40
40
E0
40
48
F0
ENDCHAR
STARTCHAR char164
ENCODING 164
SWIDTH 480 0
DWIDTH 5 0
BBX 5 6 0 0
BITMAP
88
70
50
50
70
88
ENDCHAR
STARTCHAR char165
ENCODING 165
SWIDTH 480 0
DWIDTH 5 0
BBX 5 9 0 -1
BITMAP
88
88
50
20
F8
20
F8
20
20
ENDCHAR
STARTCHAR char166
ENCODING 166
SWIDTH 480 0
DWIDTH 5 0
BBX 2 1 1 1
BITMAP
C0
ENDCHAR
STARTCHAR char167
ENCODING 167
SWIDTH 480 0
DWIDTH 5 0
BBX 5 9 0 -1
BITMAP
30
48
20
70
88
70
20
90
60
ENDCHAR
STARTCHAR char168
ENCODING 168
SWIDTH 480 0
DWIDTH 5 0
BBX 3 1 1 5
BITMAP
A0
ENDCHAR
STARTCHAR char169
ENCODING 169
SWIDTH 480 0
DWIDTH 5 0
BBX 6 7 0 0
BITMAP
38
44
B8
A0
B8
44
38
ENDCHAR
STARTCHAR char170
ENCODING 170
SWIDTH 480 0
DWIDTH 5 0
BBX 4 4 1 4
BITMAP
70
90
90
70
ENDCHAR
STARTCHAR char171
ENCODING 171
SWIDTH 480 0
DWIDTH 5 0
BBX 4 3 1 2
BITMAP
50
A0
50
ENDCHAR
STARTCHAR char172
ENCODING 172
SWIDTH 480 0
DWIDTH 5 0
BBX 5 3 0 1
BITMAP
F8
08
08
ENDCHAR
STARTCHAR char174
ENCODING 174
SWIDTH 480 0
DWIDTH 5 0
BBX 7 7 -1 0
BITMAP
38
44
BA
B2
AA
44
38
ENDCHAR
STARTCHAR char175
ENCODING 175
SWIDTH 480 0
DWIDTH 5 0
BBX 4 1 1 6
BITMAP
E0
ENDCHAR
STARTCHAR char176
ENCODING 176
SWIDTH 480 0
DWIDTH 5 0
BBX 3 3 0 2
BITMAP
40
A0
40
ENDCHAR
STARTCHAR char177
ENCODING 177
SWIDTH 480 0
DWIDTH 5 0
BBX 4 5 0 0
BITMAP
20
70
20
00
70
ENDCHAR
STARTCHAR char178
ENCODING 178
SWIDTH 480 0
DWIDTH 5 0
BBX 3 4 1 3
BITMAP
C0
20
40
E0
ENDCHAR
STARTCHAR char179
ENCODING 179
SWIDTH 480 0
DWIDTH 5 0
BBX 2 5 1 2
BITMAP
80
40
80
40
80
ENDCHAR
STARTCHAR char180
ENCODING 180
SWIDTH 480 0
DWIDTH 5 0
BBX 2 2 1 6
BITMAP
40
80
ENDCHAR
STARTCHAR char181
ENCODING 181
SWIDTH 480 0
DWIDTH 5 0
BBX 4 6 0 -1
BITMAP
90
90
90
90
E0
80
ENDCHAR
STARTCHAR char182
ENCODING 182
SWIDTH 480 0
DWIDTH 5 0
BBX 5 6 0 0
BITMAP
78
A8
A8
68
28
28
ENDCHAR
STARTCHAR char183
ENCODING 183
SWIDTH 480 0
DWIDTH 5 0
BBX 2 2 2 2
BITMAP
C0
C0
ENDCHAR
STARTCHAR char184
ENCODING 184
SWIDTH 480 0
DWIDTH 5 0
BBX 3 3 1 1
BITMAP
40
20
E0
ENDCHAR
STARTCHAR char185
ENCODING 185
SWIDTH 480 0
DWIDTH 5 0
BBX 2 4 1 2
BITMAP
40
C0
40
40
ENDCHAR
STARTCHAR char186
ENCODING 186
SWIDTH 480 0
DWIDTH 5 0
BBX 4 4 0 4
BITMAP
60
90
90
60
ENDCHAR
STARTCHAR char187
ENCODING 187
SWIDTH 480 0
DWIDTH 5 0
BBX 5 3 1 2
BITMAP
A0
50
A0
ENDCHAR
STARTCHAR char188
ENCODING 188
SWIDTH 480 0
DWIDTH 5 0
BBX 5 8 1 0
BITMAP
40
C0
40
50
30
50
78
10
ENDCHAR
STARTCHAR char189
ENCODING 189
SWIDTH 480 0
DWIDTH 5 0
BBX 5 7 1 1
BITMAP
40
C0
40
70
08
10
38
ENDCHAR
STARTCHAR char190
ENCODING 190
SWIDTH 480 0
DWIDTH 5 0
BBX 6 8 0 0
BITMAP
C0
20
40
28
D8
28
3C
08
ENDCHAR
STARTCHAR char191
ENCODING 191
SWIDTH 480 0
DWIDTH 5 0
BBX 3 6 2 0
BITMAP
40
00
40
80
A0
E0
ENDCHAR
STARTCHAR char192
ENCODING 192
SWIDTH 480 0
DWIDTH 5 0
BBX 4 8 1 0
BITMAP
40
20
60
90
90
F0
90
90
ENDCHAR
STARTCHAR char193
ENCODING 193
SWIDTH 480 0
DWIDTH 5 0
BBX 4 8 1 0
BITMAP
20
40
60
90
90
F0
90
90
ENDCHAR
STARTCHAR char194
ENCODING 194
SWIDTH 480 0
DWIDTH 5 0
BBX 4 8 1 0
BITMAP
40
A0
00
60
90
F0
90
90
ENDCHAR
STARTCHAR char195
ENCODING 195
SWIDTH 480 0
DWIDTH 5 0
BBX 4 8 1 0
BITMAP
50
A0
60
90
90
F0
90
90
ENDCHAR
STARTCHAR char196
ENCODING 196
SWIDTH 480 0
DWIDTH 5 0
BBX 5 8 0 0
BITMAP
48
00
30
48
48
78
48
48
ENDCHAR
STARTCHAR char197
ENCODING 197
SWIDTH 480 0
DWIDTH 5 0
BBX 4 8 1 0
BITMAP
60
90
60
90
90
F0
90
90
ENDCHAR
STARTCHAR char198
ENCODING 198
SWIDTH 480 0
DWIDTH 5 0
BBX 6 6 0 0
BITMAP
7C
90
9C
F0
90
9C
ENDCHAR
STARTCHAR char199
ENCODING 199
SWIDTH 480 0
DWIDTH 5 0
BBX 4 8 0 -2
BITMAP
60
90
80
80
80
70
20
40
ENDCHAR
STARTCHAR char200
ENCODING 200
SWIDTH 480 0
DWIDTH 5 0
BBX 4 8 1 0
BITMAP
40
20
F0
80
E0
80
80
F0
ENDCHAR
STARTCHAR char201
ENCODING 201
SWIDTH 480 0
DWIDTH 5 0
BBX 4 8 1 0
BITMAP
20
40
F0
80
E0
80
80
F0
ENDCHAR
STARTCHAR char202
ENCODING 202
SWIDTH 480 0
DWIDTH 5 0
BBX 4 8 1 0
BITMAP
40
A0
F0
80
E0
80
80
F0
ENDCHAR
STARTCHAR char203
ENCODING 203
SWIDTH 480 0
DWIDTH 5 0
BBX 4 8 1 0
BITMAP
A0
00
F0
80
E0
80
80
F0
ENDCHAR
STARTCHAR char204
ENCODING 204
SWIDTH 480 0
DWIDTH 5 0
BBX 3 8 1 0
BITMAP
80
40
00
E0
40
40
40
E0
ENDCHAR
STARTCHAR char205
ENCODING 205
SWIDTH 480 0
DWIDTH 5 0
BBX 3 8 1 0
BITMAP
20
40
00
E0
40
40
40
E0
ENDCHAR
STARTCHAR char206
ENCODING 206
SWIDTH 480 0
DWIDTH 5 0
BBX 3 8 1 0
BITMAP
40
A0
00
E0
40
40
40
E0
ENDCHAR
STARTCHAR char207
ENCODING 207
SWIDTH 480 0
DWIDTH 5 0
BBX 3 8 1 0
BITMAP
A0
00
E0
40
40
40
40
E0
ENDCHAR
STARTCHAR char208
ENCODING 208
SWIDTH 480 0
DWIDTH 5 0
BBX 5 6 0 0
BITMAP
70
48
E8
48
48
70
ENDCHAR
STARTCHAR char209
ENCODING 209
SWIDTH 480 0
DWIDTH 5 0
BBX 5 8 0 0
BITMAP
28
50
00
70
48
48
48
48
ENDCHAR
STARTCHAR char210
ENCODING 210
SWIDTH 480 0
DWIDTH 5 0
BBX 4 8 1 0
BITMAP
80
40
00
60
90
90
90
60
ENDCHAR
STARTCHAR char211
ENCODING 211
SWIDTH 480 0
DWIDTH 5 0
BBX 4 8 1 0
BITMAP
20
40
00
60
90
90
90
60
ENDCHAR
STARTCHAR char212
ENCODING 212
SWIDTH 480 0
DWIDTH 5 0
BBX 4 8 1 0
BITMAP
40
A0
00
60
90
90
90
60
ENDCHAR
STARTCHAR char213
ENCODING 213
SWIDTH 480 0
DWIDTH 5 0
BBX 4 8 1 0
BITMAP
50
A0
00
60
90
90
90
60
ENDCHAR
STARTCHAR char214
ENCODING 214
SWIDTH 480 0
DWIDTH 5 0
BBX 5 7 0 0
BITMAP
48
00
30
48
48
48
30
ENDCHAR
STARTCHAR char215
ENCODING 215
SWIDTH 480 0
DWIDTH 5 0
BBX 3 3 1 2
BITMAP
A0
40
A0
ENDCHAR
STARTCHAR char216
ENCODING 216
SWIDTH 480 0
DWIDTH 5 0
BBX 5 8 0 0
BITMAP
08
70
98
A8
A8
C8
70
80
ENDCHAR
STARTCHAR char217
ENCODING 217
SWIDTH 480 0
DWIDTH 5 0
BBX 4 8 1 0
BITMAP
80
40
90
90
90
90
90
70
ENDCHAR
STARTCHAR char218
ENCODING 218
SWIDTH 480 0
DWIDTH 5 0
BBX 4 8 1 0
BITMAP
10
20
90
90
90
90
90
70
ENDCHAR
STARTCHAR char219
ENCODING 219
SWIDTH 480 0
DWIDTH 5 0
BBX 4 8 1 0
BITMAP
40
A0
00
90
90
90
90
70
ENDCHAR
STARTCHAR char220
ENCODING 220
SWIDTH 480 0
DWIDTH 5 0
BBX 4 8 1 0
BITMAP
50
00
00
90
90
90
90
70
ENDCHAR
STARTCHAR char221
ENCODING 221
SWIDTH 480 0
DWIDTH 5 0
BBX 5 8 0 0
BITMAP
10
20
88
50
20
20
20
20
ENDCHAR
STARTCHAR char222
ENCODING 222
SWIDTH 480 0
DWIDTH 5 0
BBX 4 9 0 -1
BITMAP
80
80
80
E0
90
90
E0
80
80
ENDCHAR
STARTCHAR char223
ENCODING 223
SWIDTH 480 0
DWIDTH 5 0
BBX 4 8 0 -1
BITMAP
60
90
A0
90
90
A0
80
80
ENDCHAR
STARTCHAR char224
ENCODING 224
SWIDTH 480 0
DWIDTH 5 0
BBX 4 8 1 0
BITMAP
80
40
00
70
90
90
B0
50
ENDCHAR
STARTCHAR char225
ENCODING 225
SWIDTH 480 0
DWIDTH 5 0
BBX 4 8 1 0
BITMAP
20
40
00
70
90
90
B0
50
ENDCHAR
STARTCHAR char226
ENCODING 226
SWIDTH 480 0
DWIDTH 5 0
BBX 4 8 1 0
BITMAP
40
A0
00
70
90
90
B0
50
ENDCHAR
STARTCHAR char227
ENCODING 227
SWIDTH 480 0
DWIDTH 5 0
BBX 4 8 1 0
BITMAP
50
A0
00
70
90
90
B0
50
ENDCHAR
STARTCHAR char228
ENCODING 228
SWIDTH 480 0
DWIDTH 5 0
BBX 4 7 1 0
BITMAP
90
00
70
90
90
B0
50
ENDCHAR
STARTCHAR char229
ENCODING 229
SWIDTH 480 0
DWIDTH 5 0
BBX 4 7 1 0
BITMAP
20
00
70
90
90
B0
50
ENDCHAR
STARTCHAR char230
ENCODING 230
SWIDTH 480 0
DWIDTH 5 0
BBX 6 5 0 0
BITMAP
7C
90
98
B0
5C
ENDCHAR
STARTCHAR char231
ENCODING 231
SWIDTH 480 0
DWIDTH 5 0
BBX 4 7 1 -2
BITMAP
60
90
80
80
70
20
40
ENDCHAR
STARTCHAR char232
ENCODING 232
SWIDTH 480 0
DWIDTH 5 0
BBX 4 8 1 0
BITMAP
80
40
00
60
90
F0
80
70
ENDCHAR
STARTCHAR char233
ENCODING 233
SWIDTH 480 0
DWIDTH 5 0
BBX 4 8 1 0
BITMAP
20
40
00
60
90
F0
80
70
ENDCHAR
STARTCHAR char234
ENCODING 234
SWIDTH 480 0
DWIDTH 5 0
BBX 4 8 1 0
BITMAP
40
A0
00
60
90
F0
80
70
ENDCHAR
STARTCHAR char235
ENCODING 235
SWIDTH 480 0
DWIDTH 5 0
BBX 4 7 1 0
BITMAP
A0
00
60
90
F0
80
70
ENDCHAR
STARTCHAR char236
ENCODING 236
SWIDTH 480 0
DWIDTH 5 0
BBX 5 8 0 0
BITMAP
20
10
00
30
10
10
10
18
ENDCHAR
STARTCHAR char237
ENCODING 237
SWIDTH 480 0
DWIDTH 5 0
BBX 3 8 2 0
BITMAP
20
40
00
C0
40
40
40
60
ENDCHAR
STARTCHAR char238
ENCODING 238
SWIDTH 480 0
DWIDTH 5 0
BBX 3 8 2 0
BITMAP
40
A0
00
C0
40
40
40
60
ENDCHAR
STARTCHAR char239
ENCODING 239
SWIDTH 480 0
DWIDTH 5 0
BBX 3 7 2 0
BITMAP
A0
00
C0
40
40
40
60
ENDCHAR
STARTCHAR char240
ENCODING 240
SWIDTH 480 0
DWIDTH 5 0
BBX 4 8 0 0
BITMAP
50
60
90
70
90
90
90
60
ENDCHAR
STARTCHAR char241
ENCODING 241
SWIDTH 480 0
DWIDTH 5 0
BBX 4 8 1 0
BITMAP
50
A0
00
E0
90
90
90
90
ENDCHAR
STARTCHAR char242
ENCODING 242
SWIDTH 480 0
DWIDTH 5 0
BBX 5 8 0 0
BITMAP
40
20
00
30
48
48
48
30
ENDCHAR
STARTCHAR char243
ENCODING 243
SWIDTH 480 0
DWIDTH 5 0
BBX 4 8 1 0
BITMAP
10
20
00
60
90
90
90
60
ENDCHAR
STARTCHAR char244
ENCODING 244
SWIDTH 480 0
DWIDTH 5 0
BBX 4 8 1 0
BITMAP
40
A0
00
60
90
90
90
60
ENDCHAR
STARTCHAR char245
ENCODING 245
SWIDTH 480 0
DWIDTH 5 0
BBX 4 8 1 0
BITMAP
50
A0
00
60
90
90
90
60
ENDCHAR
STARTCHAR char246
ENCODING 246
SWIDTH 480 0
DWIDTH 5 0
BBX 4 7 1 0
BITMAP
90
00
60
90
90
90
60
ENDCHAR
STARTCHAR char247
ENCODING 247
SWIDTH 480 0
DWIDTH 5 0
BBX 5 5 0 1
BITMAP
20
00
F8
00
20
ENDCHAR
STARTCHAR char248
ENCODING 248
SWIDTH 480 0
DWIDTH 5 0
BBX 5 7 0 -1
BITMAP
08
70
98
A8
C8
70
80
ENDCHAR
STARTCHAR char249
ENCODING 249
SWIDTH 480 0
DWIDTH 5 0
BBX 4 8 1 0
BITMAP
80
40
00
90
90
90
90
70
ENDCHAR
STARTCHAR char250
ENCODING 250
SWIDTH 480 0
DWIDTH 5 0
BBX 5 8 0 0
BITMAP
10
20
00
48
48
48
48
38
ENDCHAR
STARTCHAR char251
ENCODING 251
SWIDTH 480 0
DWIDTH 5 0
BBX 4 8 1 0
BITMAP
40
A0
00
90
90
90
90
70
ENDCHAR
STARTCHAR char252
ENCODING 252
SWIDTH 480 0
DWIDTH 5 0
BBX 5 7 0 0
BITMAP
50
00
48
48
48
48
38
ENDCHAR
STARTCHAR char253
ENCODING 253
SWIDTH 480 0
DWIDTH 5 0
BBX 4 10 1 -2
BITMAP
20
40
00
90
90
90
90
70
10
60
ENDCHAR
STARTCHAR char254
ENCODING 254
SWIDTH 480 0
DWIDTH 5 0
BBX 5 9 -1 -1
BITMAP
40
40
70
48
48
48
70
40
40
ENDCHAR
STARTCHAR char255
ENCODING 255
SWIDTH 480 0
DWIDTH 5 0
BBX 4 9 1 -2
BITMAP
50
00
90
90
90
90
70
10
60
ENDCHAR
STARTCHAR uni037F
ENCODING 896
SWIDTH 480 0
DWIDTH 5 0
BBX 5 3 0 0
BITMAP
F8
F8
F8
ENDCHAR
STARTCHAR uni0380
ENCODING 897
SWIDTH 480 0
DWIDTH 5 0
BBX 5 3 0 0
BITMAP
A8
50
A8
ENDCHAR
STARTCHAR char1984
ENCODING 1984
SWIDTH 480 0
DWIDTH 5 0
BBX 6 2 0 -1
BITMAP
FC
FC
ENDCHAR
STARTCHAR char1984
ENCODING 1985
SWIDTH 480 0
DWIDTH 5 0
BBX 6 2 0 -1
BITMAP
A8
54
ENDCHAR
STARTCHAR char1986
ENCODING 1986
SWIDTH 480 0
DWIDTH 5 0
BBX 6 1 0 -1
BITMAP
FC
ENDCHAR
STARTCHAR char1987
ENCODING 1987
SWIDTH 480 0
DWIDTH 5 0
BBX 5 1 1 -1
BITMAP
A8
ENDCHAR
STARTCHAR char3232
ENCODING 3232
SWIDTH 480 0
DWIDTH 5 0
BBX 6 7 0 0
BITMAP
18
04
F8
44
54
44
38
ENDCHAR
STARTCHAR char8216
ENCODING 8216
SWIDTH 480 0
DWIDTH 5 0
BBX 2 3 2 3
BITMAP
40
80
80
ENDCHAR
STARTCHAR char8217
ENCODING 8217
SWIDTH 480 0
DWIDTH 5 0
BBX 2 3 3 3
BITMAP
40
40
80
ENDCHAR
STARTCHAR char8218
ENCODING 8218
SWIDTH 480 0
DWIDTH 5 0
BBX 4 3 0 -1
BITMAP
10
10
20
ENDCHAR
STARTCHAR char8220
ENCODING 8220
SWIDTH 480 0
DWIDTH 5 0
BBX 4 3 1 3
BITMAP
50
A0
F0
ENDCHAR
STARTCHAR char8221
ENCODING 8221
SWIDTH 480 0
DWIDTH 5 0
BBX 4 3 1 3
BITMAP
F0
50
A0
ENDCHAR
STARTCHAR char8222
ENCODING 8222
SWIDTH 480 0
DWIDTH 5 0
BBX 4 3 1 -1
BITMAP
F0
50
A0
ENDCHAR
STARTCHAR char8223
ENCODING 8223
SWIDTH 480 0
DWIDTH 5 0
BBX 4 3 1 3
BITMAP
F0
A0
50
ENDCHAR
STARTCHAR char8228
ENCODING 8228
SWIDTH 480 0
DWIDTH 5 0
BBX 3 1 0 0
BITMAP
20
ENDCHAR
STARTCHAR char8229
ENCODING 8229
SWIDTH 480 0
DWIDTH 5 0
BBX 4 1 0 0
BITMAP
50
ENDCHAR
STARTCHAR char8230
ENCODING 8230
SWIDTH 480 0
DWIDTH 5 0
BBX 5 1 0 0
BITMAP
A8
ENDCHAR
STARTCHAR char8231
ENCODING 8231
SWIDTH 480 0
DWIDTH 5 0
BBX 1 1 2 2
BITMAP
80
ENDCHAR
STARTCHAR char8364
ENCODING 8364
SWIDTH 480 0
DWIDTH 5 0
BBX 5 7 0 0
BITMAP
30
48
E0
40
E0
48
30
ENDCHAR
STARTCHAR char8482
ENCODING 8482
SWIDTH 480 0
DWIDTH 5 0
BBX 6 3 0 2
BITMAP
F4
5C
54
ENDCHAR
STARTCHAR char8592
ENCODING 8592
SWIDTH 480 0
DWIDTH 5 0
BBX 6 5 0 0
BITMAP
20
60
FC
60
20
ENDCHAR
STARTCHAR char8593
ENCODING 8593
SWIDTH 480 0
DWIDTH 5 0
BBX 5 6 0 0
BITMAP
20
70
F8
20
20
20
ENDCHAR
STARTCHAR char8594
ENCODING 8594
SWIDTH 480 0
DWIDTH 5 0
BBX 6 5 0 0
BITMAP
10
18
FC
18
10
ENDCHAR
STARTCHAR char8595
ENCODING 8595
SWIDTH 480 0
DWIDTH 5 0
BBX 5 6 0 0
BITMAP
20
20
20
F8
70
20
ENDCHAR
STARTCHAR char8596
ENCODING 8596
SWIDTH 480 0
DWIDTH 5 0
BBX 6 3 0 1
BITMAP
48
FC
48
ENDCHAR
STARTCHAR char8597
ENCODING 8597
SWIDTH 480 0
DWIDTH 5 0
BBX 5 8 0 -1
BITMAP
20
70
F8
20
20
F8
70
20
ENDCHAR
STARTCHAR char8598
ENCODING 8598
SWIDTH 480 0
DWIDTH 5 0
BBX 4 4 0 1
BITMAP
E0
C0
A0
10
ENDCHAR
STARTCHAR char8599
ENCODING 8599
SWIDTH 480 0
DWIDTH 5 0
BBX 4 4 1 1
BITMAP
70
30
50
80
ENDCHAR
STARTCHAR char8600
ENCODING 8600
SWIDTH 480 0
DWIDTH 5 0
BBX 4 4 1 0
BITMAP
80
50
30
70
ENDCHAR
STARTCHAR char8601
ENCODING 8601
SWIDTH 480 0
DWIDTH 5 0
BBX 4 4 0 0
BITMAP
10
A0
C0
E0
ENDCHAR
STARTCHAR char8624
ENCODING 8624
SWIDTH 480 0
DWIDTH 5 0
BBX 4 5 0 0
BITMAP
40
F0
50
10
10
ENDCHAR
STARTCHAR char8625
ENCODING 8625
SWIDTH 480 0
DWIDTH 5 0
BBX 4 5 0 0
BITMAP
20
F0
A0
80
80
ENDCHAR
STARTCHAR char8626
ENCODING 8626
SWIDTH 480 0
DWIDTH 5 0
BBX 4 5 0 -1
BITMAP
10
10
50
F0
40
ENDCHAR
STARTCHAR char8627
ENCODING 8627
SWIDTH 480 0
DWIDTH 5 0
BBX 4 5 0 -1
BITMAP
80
80
A0
F0
20
ENDCHAR
STARTCHAR char8628
ENCODING 8628
SWIDTH 480 0
DWIDTH 5 0
BBX 4 4 0 -1
BITMAP
E0
20
70
20
ENDCHAR
STARTCHAR char8629
ENCODING 8629
SWIDTH 480 0
DWIDTH 5 0
BBX 4 5 0 -1
BITMAP
10
10
50
F0
40
ENDCHAR
STARTCHAR char8630
ENCODING 8630
SWIDTH 480 0
DWIDTH 5 0
BBX 4 5 0 0
BITMAP
20
50
40
E0
40
ENDCHAR
STARTCHAR char8631
ENCODING 8631
SWIDTH 480 0
DWIDTH 5 0
BBX 4 5 1 0
BITMAP
40
A0
20
70
20
ENDCHAR
STARTCHAR char8689
ENCODING 8689
SWIDTH 480 0
DWIDTH 5 0
BBX 6 6 0 0
BITMAP
F8
80
B8
B0
A8
04
ENDCHAR
STARTCHAR char8690
ENCODING 8690
SWIDTH 480 0
DWIDTH 5 0
BBX 6 6 1 -1
BITMAP
80
54
34
74
04
7C
ENDCHAR
STARTCHAR char8693
ENCODING 8693
SWIDTH 480 0
DWIDTH 5 0
BBX 6 6 0 0
BITMAP
48
E8
48
48
5C
48
ENDCHAR
STARTCHAR char8694
ENCODING 8694
SWIDTH 480 0
DWIDTH 5 0
BBX 5 7 1 -1
BITMAP
10
F8
10
F8
10
F8
10
ENDCHAR
STARTCHAR char8695
ENCODING 8695
SWIDTH 480 0
DWIDTH 5 0
BBX 6 3 0 0
BITMAP
50
FC
50
ENDCHAR
STARTCHAR char8696
ENCODING 8696
SWIDTH 480 0
DWIDTH 5 0
BBX 6 3 0 0
BITMAP
28
FC
28
ENDCHAR
STARTCHAR char8701
ENCODING 8701
SWIDTH 480 0
DWIDTH 5 0
BBX 6 3 0 1
BITMAP
40
BC
40
ENDCHAR
STARTCHAR char8702
ENCODING 8702
SWIDTH 480 0
DWIDTH 5 0
BBX 6 3 0 1
BITMAP
08
F4
08
ENDCHAR
STARTCHAR char8703
ENCODING 8703
SWIDTH 480 0
DWIDTH 5 0
BBX 6 3 0 1
BITMAP
48
B4
48
ENDCHAR
STARTCHAR char8704
ENCODING 8704
SWIDTH 480 0
DWIDTH 5 0
BBX 5 6 1 -1
BITMAP
88
88
70
50
20
20
ENDCHAR
STARTCHAR char8705
ENCODING 8705
SWIDTH 480 0
DWIDTH 5 0
BBX 5 7 1 -1
BITMAP
70
88
88
80
88
88
70
ENDCHAR
STARTCHAR char8706
ENCODING 8706
SWIDTH 480 0
DWIDTH 5 0
BBX 4 7 1 0
BITMAP
80
40
20
50
90
90
60
ENDCHAR
STARTCHAR char8707
ENCODING 8707
SWIDTH 480 0
DWIDTH 5 0
BBX 5 6 1 0
BITMAP
F8
08
78
08
08
F8
ENDCHAR
STARTCHAR char8708
ENCODING 8708
SWIDTH 480 0
DWIDTH 5 0
BBX 5 8 1 -1
BITMAP
10
F8
28
78
28
48
F8
40
ENDCHAR
STARTCHAR char8709
ENCODING 8709
SWIDTH 480 0
DWIDTH 5 0
BBX 7 6 0 0
BITMAP
38
46
4C
74
C4
38
ENDCHAR
STARTCHAR char8710
ENCODING 8710
SWIDTH 480 0
DWIDTH 5 0
BBX 6 5 0 0
BITMAP
10
28
28
44
7C
ENDCHAR
STARTCHAR char8711
ENCODING 8711
SWIDTH 480 0
DWIDTH 5 0
BBX 5 5 1 0
BITMAP
F8
88
50
50
20
ENDCHAR
STARTCHAR char8712
ENCODING 8712
SWIDTH 480 0
DWIDTH 5 0
BBX 5 7 1 -1
BITMAP
38
40
80
F0
80
40
38
ENDCHAR
STARTCHAR char8713
ENCODING 8713
SWIDTH 480 0
DWIDTH 5 0
BBX 5 8 1 -1
BITMAP
08
38
50
A0
F0
A0
40
78
ENDCHAR
STARTCHAR char8714
ENCODING 8714
SWIDTH 480 0
DWIDTH 5 0
BBX 4 5 1 0
BITMAP
70
80
E0
80
70
ENDCHAR
STARTCHAR char8715
ENCODING 8715
SWIDTH 480 0
DWIDTH 5 0
BBX 6 7 0 -1
BITMAP
70
08
04
3C
04
08
70
ENDCHAR
STARTCHAR char8716
ENCODING 8716
SWIDTH 480 0
DWIDTH 5 0
BBX 6 8 0 -1
BITMAP
80
70
48
24
3C
14
08
74
ENDCHAR
STARTCHAR char8717
ENCODING 8717
SWIDTH 480 0
DWIDTH 5 0
BBX 6 5 0 0
BITMAP
38
04
1C
04
38
ENDCHAR
STARTCHAR char8719
ENCODING 8719
SWIDTH 480 0
DWIDTH 5 0
BBX 5 5 1 0
BITMAP
F8
50
50
50
50
ENDCHAR
STARTCHAR char8720
ENCODING 8720
SWIDTH 480 0
DWIDTH 5 0
BBX 6 5 0 0
BITMAP
28
28
28
28
7C
ENDCHAR
STARTCHAR char8721
ENCODING 8721
SWIDTH 480 0
DWIDTH 5 0
BBX 5 7 0 -1
BITMAP
F8
88
40
20
40
88
F8
ENDCHAR
STARTCHAR char8722
ENCODING 8722
SWIDTH 480 0
DWIDTH 5 0
BBX 3 1 0 2
BITMAP
E0
ENDCHAR
STARTCHAR char8723
ENCODING 8723
SWIDTH 480 0
DWIDTH 5 0
BBX 3 5 0 -1
BITMAP
E0
00
40
E0
40
ENDCHAR
STARTCHAR char8724
ENCODING 8724
SWIDTH 480 0
DWIDTH 5 0
BBX 5 8 0 -1
BITMAP
20
70
20
20
20
F8
20
20
ENDCHAR
STARTCHAR char8730
ENCODING 8730
SWIDTH 480 0
DWIDTH 5 0
BBX 7 7 0 -1
BITMAP
02
02
04
C4
28
28
10
ENDCHAR
STARTCHAR char8731
ENCODING 8731
SWIDTH 480 0
DWIDTH 5 0
BBX 7 8 0 -1
BITMAP
30
32
12
34
C4
28
28
10
ENDCHAR
STARTCHAR char8732
ENCODING 8732
SWIDTH 480 0
DWIDTH 5 0
BBX 7 7 0 -1
BITMAP
12
32
14
C4
28
28
10
ENDCHAR
STARTCHAR char8733
ENCODING 8733
SWIDTH 480 0
DWIDTH 5 0
BBX 4 3 0 1
BITMAP
D0
A0
D0
ENDCHAR
STARTCHAR char8734
ENCODING 8734
SWIDTH 480 0
DWIDTH 5 0
BBX 6 4 0 0
BITMAP
48
B4
B4
48
ENDCHAR
STARTCHAR char8776
ENCODING 8776
SWIDTH 480 0
DWIDTH 5 0
BBX 5 5 0 0
BITMAP
08
70
88
70
80
ENDCHAR
STARTCHAR char8790
ENCODING 8790
SWIDTH 480 0
DWIDTH 5 0
BBX 5 3 0 1
BITMAP
F8
50
F8
ENDCHAR
STARTCHAR char8800
ENCODING 8800
SWIDTH 480 0
DWIDTH 5 0
BBX 3 5 2 1
BITMAP
20
E0
40
E0
80
ENDCHAR
STARTCHAR char8804
ENCODING 8804
SWIDTH 480 0
DWIDTH 5 0
BBX 4 7 1 -1
BITMAP
20
40
80
40
20
00
F0
ENDCHAR
STARTCHAR char8805
ENCODING 8805
SWIDTH 480 0
DWIDTH 5 0
BBX 5 7 0 -1
BITMAP
20
10
08
10
20
00
78
ENDCHAR
STARTCHAR char8978
ENCODING 8978
SWIDTH 480 0
DWIDTH 5 0
BBX 4 2 0 2
BITMAP
60
90
ENDCHAR
STARTCHAR char8994
ENCODING 8994
SWIDTH 480 0
DWIDTH 5 0
BBX 5 2 0 2
BITMAP
70
88
ENDCHAR
STARTCHAR QUADRANT LOWER LEFT
ENCODING 9622
SWIDTH 480 0
DWIDTH 5 0
BBX 3 3 0 0
BITMAP
E0
E0
E0
ENDCHAR
STARTCHAR QUADRANT LOWER RIGHT
ENCODING 9623
SWIDTH 480 0
DWIDTH 5 0
BBX 3 3 3 0
BITMAP
E0
E0
E0
ENDCHAR
STARTCHAR QUADRANT UPPER LEFT
ENCODING 9624
SWIDTH 480 0
DWIDTH 5 0
BBX 3 3 0 3
BITMAP
E0
E0
E0
ENDCHAR
STARTCHAR QUADRANT UPPER LEFT AND LOWER LEFT AND LOWER RIGHT
ENCODING 9625
SWIDTH 480 0
DWIDTH 5 0
BBX 6 6 0 0
BITMAP
E0
E0
E0
FC
FC
FC
ENDCHAR
STARTCHAR QUADRANT UPPER LEFT AND LOWER RIGHT
ENCODING 9626
SWIDTH 480 0
DWIDTH 5 0
BBX 6 6 0 0
BITMAP
E0
E0
E0
1C
1C
1C
ENDCHAR
STARTCHAR QUADRANT UPPER LEFT AND UPPER RIGHT AND LOWER LEFT
ENCODING 9627
SWIDTH 480 0
DWIDTH 5 0
BBX 6 6 0 0
BITMAP
FC
FC
FC
E0
E0
E0
ENDCHAR
STARTCHAR QUADRANT UPPER LEFT AND UPPER RIGHT AND LOWER RIGHT
ENCODING 9628
SWIDTH 480 0
DWIDTH 5 0
BBX 6 6 0 0
BITMAP
FC
FC
FC
1C
1C
1C
ENDCHAR
STARTCHAR QUADRANT UPPER RIGHT
ENCODING 9629
SWIDTH 480 0
DWIDTH 5 0
BBX 3 3 3 3
BITMAP
E0
E0
E0
ENDCHAR
STARTCHAR QUADRANT UPPER RIGHT AND LOWER LEFT
ENCODING 9630
SWIDTH 480 0
DWIDTH 5 0
BBX 6 6 0 0
BITMAP
1C
1C
1C
E0
E0
E0
ENDCHAR
STARTCHAR QUADRANT UPPER RIGHT AND LOWER LEFT AND LOWER RIGHT
ENCODING 9631
SWIDTH 480 0
DWIDTH 5 0
BBX 6 6 0 0
BITMAP
1C
1C
1C
FC
FC
FC
ENDCHAR
STARTCHAR BLACK SQUARE
ENCODING 9632
SWIDTH 480 0
DWIDTH 5 0
BBX 6 6 0 0
BITMAP
FC
FC
FC
FC
FC
FC
ENDCHAR
STARTCHAR WHITE SQUARE
ENCODING 9633
SWIDTH 480 0
DWIDTH 5 0
BBX 6 6 0 0
BITMAP
FC
84
84
84
84
FC
ENDCHAR
STARTCHAR WHITE SQUARE WITH ROUNDED CORNERS
ENCODING 9634
SWIDTH 480 0
DWIDTH 5 0
BBX 6 6 0 0
BITMAP
78
84
84
84
84
78
ENDCHAR
STARTCHAR WHITE SQUARE CONTAINING BLACK SMALL SQUARE
ENCODING 9635
SWIDTH 480 0
DWIDTH 5 0
BBX 5 5 0 0
BITMAP
F8
88
A8
88
F8
ENDCHAR
STARTCHAR SQUARE WITH HORIZONTAL FILL
ENCODING 9636
SWIDTH 480 0
DWIDTH 5 0
BBX 5 5 0 0
BITMAP
F8
88
F8
88
F8
ENDCHAR
STARTCHAR SQUARE WITH VERTICAL FILL
ENCODING 9637
SWIDTH 480 0
DWIDTH 5 0
BBX 5 5 0 0
BITMAP
F8
A8
A8
A8
F8
ENDCHAR
STARTCHAR SQUARE WITH ORTHOGONAL CROSSHATCH FILL
ENCODING 9638
SWIDTH 480 0
DWIDTH 5 0
BBX 5 5 0 0
BITMAP
F8
A8
F8
A8
F8
ENDCHAR
STARTCHAR SQUARE WITH UPPER LEFT TO LOWER RIGHT FILL
ENCODING 9639
SWIDTH 480 0
DWIDTH 5 0
BBX 5 5 0 0
BITMAP
F8
C8
A8
98
F8
ENDCHAR
STARTCHAR SQUARE WITH UPPER RIGHT TO LOWER LEFT FILL
ENCODING 9640
SWIDTH 480 0
DWIDTH 5 0
BBX 5 5 0 0
BITMAP
F8
98
A8
C8
F8
ENDCHAR
STARTCHAR SQUARE WITH DIAGONAL CROSSHATCH FILL
ENCODING 9641
SWIDTH 480 0
DWIDTH 5 0
BBX 5 5 0 0
BITMAP
F8
A8
D8
A8
F8
ENDCHAR
STARTCHAR BLACK SMALL SQUARE
ENCODING 9642
SWIDTH 480 0
DWIDTH 5 0
BBX 5 5 0 0
BITMAP
F8
F8
F8
F8
F8
ENDCHAR
STARTCHAR WHITE SMALL SQUARE
ENCODING 9643
SWIDTH 480 0
DWIDTH 5 0
BBX 5 5 0 0
BITMAP
F8
88
88
88
F8
ENDCHAR
STARTCHAR BLACK RECTANGLE
ENCODING 9644
SWIDTH 480 0
DWIDTH 5 0
BBX 5 3 0 0
BITMAP
F8
F8
F8
ENDCHAR
STARTCHAR WHITE RECTANGLE
ENCODING 9645
SWIDTH 480 0
DWIDTH 5 0
BBX 5 3 0 0
BITMAP
F8
88
F8
ENDCHAR
STARTCHAR BLACK VERTICAL RECTANGLE
ENCODING 9646
SWIDTH 480 0
DWIDTH 5 0
BBX 4 7 0 0
BITMAP
F0
F0
F0
F0
F0
F0
F0
ENDCHAR
STARTCHAR WHITE VERTICAL RECTANGLE
ENCODING 9647
SWIDTH 480 0
DWIDTH 5 0
BBX 4 7 0 0
BITMAP
F0
90
90
90
90
90
F0
ENDCHAR
STARTCHAR BLACK PARALLELOGRAM
ENCODING 9648
SWIDTH 480 0
DWIDTH 5 0
BBX 6 3 0 0
BITMAP
7C
FC
F8
ENDCHAR
STARTCHAR WHITE PARALLELOGRAM
ENCODING 9649
SWIDTH 480 0
DWIDTH 5 0
BBX 6 3 0 0
BITMAP
7C
84
F8
ENDCHAR
STARTCHAR BLACK UP-POINTING TRIANGLE
ENCODING 9650
SWIDTH 480 0
DWIDTH 5 0
BBX 6 6 0 0
BITMAP
30
30
78
78
FC
FC
ENDCHAR
STARTCHAR WHITE UP-POINTING TRIANGLE
ENCODING 9651
SWIDTH 480 0
DWIDTH 5 0
BBX 6 6 0 0
BITMAP
30
30
48
48
84
FC
ENDCHAR
STARTCHAR BLACK UP-POINTING SMALL TRIANGLE
ENCODING 9652
SWIDTH 480 0
DWIDTH 5 0
BBX 5 6 0 0
BITMAP
20
20
70
70
F8
F8
ENDCHAR
STARTCHAR WHITE UP-POINTING SMALL TRIANGLE
ENCODING 9653
SWIDTH 480 0
DWIDTH 5 0
BBX 5 6 0 0
BITMAP
20
20
50
50
88
F8
ENDCHAR
STARTCHAR BLACK RIGHT-POINTING TRIANGLE
ENCODING 9654
SWIDTH 480 0
DWIDTH 5 0
BBX 6 6 0 0
BITMAP
C0
F0
FC
FC
F0
C0
ENDCHAR
STARTCHAR WHITE RIGHT-POINTING TRIANGLE
ENCODING 9655
SWIDTH 480 0
DWIDTH 5 0
BBX 6 6 0 0
BITMAP
C0
B0
8C
8C
B0
C0
ENDCHAR
STARTCHAR BLACK RIGHT-POINTING SMALL TRIANGLE
ENCODING 9656
SWIDTH 480 0
DWIDTH 5 0
BBX 6 5 0 0
BITMAP
C0
F0
FC
F0
C0
ENDCHAR
STARTCHAR WHITE RIGHT-POINTING SMALL TRIANGLE
ENCODING 9657
SWIDTH 480 0
DWIDTH 5 0
BBX 6 5 0 0
BITMAP
C0
B0
8C
B0
C0
ENDCHAR
STARTCHAR BLACK RIGHT-POINTING POINTER
ENCODING 9658
SWIDTH 480 0
DWIDTH 5 0
BBX 7 5 -1 0
BITMAP
C0
F8
FE
F8
C0
ENDCHAR
STARTCHAR WHITE RIGHT-POINTING POINTER
ENCODING 9659
SWIDTH 480 0
DWIDTH 5 0
BBX 7 5 -1 0
BITMAP
C0
B8
86
B8
C0
ENDCHAR
STARTCHAR BLACK DOWN-POINTING TRIANGLE
ENCODING 9660
SWIDTH 480 0
DWIDTH 5 0
BBX 6 6 0 0
BITMAP
FC
FC
78
78
30
30
ENDCHAR
STARTCHAR WHITE DOWN-POINTING TRIANGLE
ENCODING 9661
SWIDTH 480 0
DWIDTH 5 0
BBX 6 6 0 0
BITMAP
FC
84
48
48
30
30
ENDCHAR
STARTCHAR BLACK DOWN-POINTING SMALL TRIANGLE
ENCODING 9662
SWIDTH 480 0
DWIDTH 5 0
BBX 5 6 0 0
BITMAP
F8
F8
70
70
20
20
ENDCHAR
STARTCHAR WHITE DOWN-POINTING SMALL TRIANGLE
ENCODING 9663
SWIDTH 480 0
DWIDTH 5 0
BBX 5 6 0 0
BITMAP
F8
88
50
50
20
20
ENDCHAR
STARTCHAR BLACK LEFT-POINTING TRIANGLE
ENCODING 9664
SWIDTH 480 0
DWIDTH 5 0
BBX 6 6 0 0
BITMAP
0C
3C
FC
FC
3C
0C
ENDCHAR
STARTCHAR WHITE LEFT-POINTING TRIANGLE
ENCODING 9665
SWIDTH 480 0
DWIDTH 5 0
BBX 6 6 0 0
BITMAP
0C
34
C4
C4
34
0C
ENDCHAR
STARTCHAR BLACK LEFT-POINTING SMALL TRIANGLE
ENCODING 9666
SWIDTH 480 0
DWIDTH 5 0
BBX 6 5 0 0
BITMAP
0C
3C
FC
3C
0C
ENDCHAR
STARTCHAR WHITE LEFT-POINTING SMALL TRIANGLE
ENCODING 9667
SWIDTH 480 0
DWIDTH 5 0
BBX 6 5 0 0
BITMAP
0C
34
C4
34
0C
ENDCHAR
STARTCHAR BLACK LEFT-POINTING POINTER
ENCODING 9668
SWIDTH 480 0
DWIDTH 5 0
BBX 7 5 -1 0
BITMAP
06
3E
FE
3E
06
ENDCHAR
STARTCHAR WHITE LEFT-POINTING POINTER
ENCODING 9669
SWIDTH 480 0
DWIDTH 5 0
BBX 7 5 -1 0
BITMAP
06
3A
C2
3A
06
ENDCHAR
STARTCHAR BLACK DIAMOND
ENCODING 9670
SWIDTH 480 0
DWIDTH 5 0
BBX 5 5 0 1
BITMAP
20
70
F8
70
20
ENDCHAR
STARTCHAR WHITE DIAMOND
ENCODING 9671
SWIDTH 480 0
DWIDTH 5 0
BBX 5 5 0 1
BITMAP
20
50
88
50
20
ENDCHAR
STARTCHAR WHITE DIAMOND CONTAINING BLACK SMALL DIAMOND
ENCODING 9672
SWIDTH 480 0
DWIDTH 5 0
BBX 5 5 0 1
BITMAP
20
50
A8
50
20
ENDCHAR
STARTCHAR FISHEYE
ENCODING 9673
SWIDTH 480 0
DWIDTH 5 0
BBX 5 5 0 1
BITMAP
70
88
A8
88
70
ENDCHAR
STARTCHAR LOZENGE
ENCODING 9674
SWIDTH 480 0
DWIDTH 5 0
BBX 5 7 0 0
BITMAP
20
50
50
88
50
50
20
ENDCHAR
STARTCHAR WHITE CIRCLE
ENCODING 9675
SWIDTH 480 0
DWIDTH 5 0
BBX 5 5 0 1
BITMAP
70
88
88
88
70
ENDCHAR
STARTCHAR DOTTED CIRCLE
ENCODING 9676
SWIDTH 480 0
DWIDTH 5 0
BBX 5 5 0 1
BITMAP
50
88
00
88
50
ENDCHAR
STARTCHAR CIRCLE WITH VERTICAL FILL
ENCODING 9677
SWIDTH 480 0
DWIDTH 5 0
BBX 5 5 0 0
BITMAP
70
A8
A8
A8
70
ENDCHAR
STARTCHAR BULLSEYE
ENCODING 9678
SWIDTH 480 0
DWIDTH 5 0
BBX 5 5 0 0
BITMAP
70
88
A8
88
70
ENDCHAR
STARTCHAR BLACK CIRCLE
ENCODING 9679
SWIDTH 480 0
DWIDTH 5 0
BBX 4 4 1 2
BITMAP
60
F0
F0
60
ENDCHAR
STARTCHAR CIRCLE WITH LEFT HALF BLACK
ENCODING 9680
SWIDTH 480 0
DWIDTH 5 0
BBX 4 4 1 2
BITMAP
60
D0
D0
60
ENDCHAR
STARTCHAR CIRCLE WITH RIGHT HALF BLACK
ENCODING 9681
SWIDTH 480 0
DWIDTH 5 0
BBX 4 4 1 2
BITMAP
60
B0
B0
60
ENDCHAR
STARTCHAR CIRCLE WITH LOWER HALF BLACK
ENCODING 9682
SWIDTH 480 0
DWIDTH 5 0
BBX 4 4 1 2
BITMAP
60
F0
90
60
ENDCHAR
STARTCHAR CIRCLE WITH UPPER HALF BLACK
ENCODING 9683
SWIDTH 480 0
DWIDTH 5 0
BBX 4 4 1 2
BITMAP
60
90
F0
60
ENDCHAR
STARTCHAR CIRCLE WITH UPPER RIGHT QUADRANT BLACK
ENCODING 9684
SWIDTH 480 0
DWIDTH 5 0
BBX 4 4 1 2
BITMAP
60
B0
90
60
ENDCHAR
STARTCHAR CIRCLE WITH ALL BUT UPPER LEFT QUADRANT BLACK
ENCODING 9685
SWIDTH 480 0
DWIDTH 5 0
BBX 4 4 1 2
BITMAP
60
B0
F0
60
ENDCHAR
STARTCHAR LEFT HALF BLACK CIRCLE
ENCODING 9686
SWIDTH 480 0
DWIDTH 5 0
BBX 2 4 1 2
BITMAP
40
C0
C0
40
ENDCHAR
STARTCHAR RIGHT HALF BLACK CIRCLE
ENCODING 9687
SWIDTH 480 0
DWIDTH 5 0
BBX 2 4 3 2
BITMAP
80
C0
C0
80
ENDCHAR
STARTCHAR INVERSE BULLET
ENCODING 9688
SWIDTH 480 0
DWIDTH 5 0
BBX 6 11 0 -2
BITMAP
FC
FC
FC
FC
CC
84
84
CC
FC
FC
FC
ENDCHAR
STARTCHAR INVERSE WHITE CIRCLE
ENCODING 9689
SWIDTH 480 0
DWIDTH 5 0
BBX 7 7 -1 0
BITMAP
FE
C6
BA
BA
BA
C6
FE
ENDCHAR
STARTCHAR UPPER HALF INVERSE WHITE CIRCLE
ENCODING 9690
SWIDTH 480 0
DWIDTH 5 0
BBX 7 4 -1 3
BITMAP
FE
C6
BA
BA
ENDCHAR
STARTCHAR LOWER HALF INVERSE WHITE CIRCLE
ENCODING 9691
SWIDTH 480 0
DWIDTH 5 0
BBX 7 4 -1 0
BITMAP
BA
BA
C6
FE
ENDCHAR
STARTCHAR UPPER LEFT QUADRANT CIRCULAR ARC
ENCODING 9692
SWIDTH 480 0
DWIDTH 5 0
BBX 3 3 0 3
BITMAP
60
80
80
ENDCHAR
STARTCHAR UPPER RIGHT QUADRANT CIRCULAR ARC
ENCODING 9693
SWIDTH 480 0
DWIDTH 5 0
BBX 3 3 2 3
BITMAP
C0
20
20
ENDCHAR
STARTCHAR LOWER RIGHT QUADRANT CIRCULAR ARC
ENCODING 9694
SWIDTH 480 0
DWIDTH 5 0
BBX 3 3 2 1
BITMAP
20
20
C0
ENDCHAR
STARTCHAR LOWER LEFT QUADRANT CIRCULAR ARC
ENCODING 9695
SWIDTH 480 0
DWIDTH 5 0
BBX 3 3 0 1
BITMAP
80
80
60
ENDCHAR
STARTCHAR UPPER HALF CIRCLE
ENCODING 9696
SWIDTH 480 0
DWIDTH 5 0
BBX 5 3 0 3
BITMAP
70
88
88
ENDCHAR
STARTCHAR LOWER HALF CIRCLE
ENCODING 9697
SWIDTH 480 0
DWIDTH 5 0
BBX 6 3 0 1
BITMAP
84
44
38
ENDCHAR
STARTCHAR BLACK LOWER RIGHT TRIANGLE
ENCODING 9698
SWIDTH 480 0
DWIDTH 5 0
BBX 6 6 0 0
BITMAP
04
0C
1C
3C
7C
FC
ENDCHAR
STARTCHAR BLACK LOWER LEFT TRIANGLE
ENCODING 9699
SWIDTH 480 0
DWIDTH 5 0
BBX 6 6 0 0
BITMAP
80
C0
E0
F0
F8
FC
ENDCHAR
STARTCHAR BLACK UPPER LEFT TRIANGLE
ENCODING 9700
SWIDTH 480 0
DWIDTH 5 0
BBX 6 6 0 0
BITMAP
FC
F8
F0
E0
C0
80
ENDCHAR
STARTCHAR BLACK UPPER RIGHT TRIANGLE
ENCODING 9701
SWIDTH 480 0
DWIDTH 5 0
BBX 6 6 0 0
BITMAP
FC
7C
3C
1C
0C
04
ENDCHAR
STARTCHAR WHITE BULLET
ENCODING 9702
SWIDTH 480 0
DWIDTH 5 0
BBX 5 5 0 1
BITMAP
70
88
88
88
70
ENDCHAR
STARTCHAR SQUARE WITH LEFT HALF BLACK
ENCODING 9703
SWIDTH 480 0
DWIDTH 5 0
BBX 5 5 0 0
BITMAP
F8
C8
C8
C8
F8
ENDCHAR
STARTCHAR SQUARE WITH RIGHT HALF BLACK
ENCODING 9704
SWIDTH 480 0
DWIDTH 5 0
BBX 5 5 0 0
BITMAP
F8
98
98
98
F8
ENDCHAR
STARTCHAR SQUARE WITH UPPER LEFT DIAGONAL HALF BLACK
ENCODING 9705
SWIDTH 480 0
DWIDTH 5 0
BBX 5 5 0 0
BITMAP
F8
E8
C8
88
F8
ENDCHAR
STARTCHAR SQUARE WITH LOWER RIGHT DIAGONAL HALF BLACK
ENCODING 9706
SWIDTH 480 0
DWIDTH 5 0
BBX 5 5 0 0
BITMAP
F8
88
98
B8
F8
ENDCHAR
STARTCHAR WHITE SQUARE WITH VERTICAL BISECTING LINE
ENCODING 9707
SWIDTH 480 0
DWIDTH 5 0
BBX 5 5 0 0
BITMAP
F8
A8
A8
A8
F8
ENDCHAR
STARTCHAR WHITE UP-POINTING TRIANGLE WITH DOT
ENCODING 9708
SWIDTH 480 0
DWIDTH 5 0
BBX 5 7 0 0
BITMAP
20
20
50
50
A8
88
F8
ENDCHAR
STARTCHAR UP-POINTING TRIANGLE WITH LEFT HALF BLACK
ENCODING 9709
SWIDTH 480 0
DWIDTH 5 0
BBX 5 6 0 0
BITMAP
20
20
70
70
E8
F8
ENDCHAR
STARTCHAR UP-POINTING TRIANGLE WITH RIGHT HALF BLACK
ENCODING 9710
SWIDTH 480 0
DWIDTH 5 0
BBX 5 6 0 0
BITMAP
20
20
70
70
B8
F8
ENDCHAR
STARTCHAR LARGE CIRCLE
ENCODING 9711
SWIDTH 480 0
DWIDTH 5 0
BBX 5 5 0 0
BITMAP
70
88
88
88
70
ENDCHAR
STARTCHAR WHITE SQUARE WITH UPPER LEFT QUADRANT
ENCODING 9712
SWIDTH 480 0
DWIDTH 5 0
BBX 5 5 0 0
BITMAP
F8
A8
E8
88
F8
ENDCHAR
STARTCHAR WHITE SQUARE WITH LOWER LEFT QUADRANT
ENCODING 9713
SWIDTH 480 0
DWIDTH 5 0
BBX 5 5 0 0
BITMAP
F8
88
E8
A8
F8
ENDCHAR
STARTCHAR WHITE SQUARE WITH LOWER RIGHT QUADRANT
ENCODING 9714
SWIDTH 480 0
DWIDTH 5 0
BBX 5 5 0 0
BITMAP
F8
88
B8
A8
F8
ENDCHAR
STARTCHAR WHITE SQUARE WITH UPPER RIGHT QUADRANT
ENCODING 9715
SWIDTH 480 0
DWIDTH 5 0
BBX 5 5 0 0
BITMAP
F8
A8
B8
88
F8
ENDCHAR
STARTCHAR WHITE CIRCLE WITH UPPER LEFT QUADRANT
ENCODING 9716
SWIDTH 480 0
DWIDTH 5 0
BBX 5 5 0 0
BITMAP
70
A8
E8
88
70
ENDCHAR
STARTCHAR WHITE CIRCLE WITH LOWER LEFT QUADRANT
ENCODING 9717
SWIDTH 480 0
DWIDTH 5 0
BBX 5 5 0 0
BITMAP
70
88
E8
A8
70
ENDCHAR
STARTCHAR WHITE CIRCLE WITH LOWER RIGHT QUADRANT
ENCODING 9718
SWIDTH 480 0
DWIDTH 5 0
BBX 5 5 0 0
BITMAP
70
88
B8
A8
70
ENDCHAR
STARTCHAR WHITE CIRCLE WITH UPPER RIGHT QUADRANT
ENCODING 9719
SWIDTH 480 0
DWIDTH 5 0
BBX 5 5 0 0
BITMAP
70
A8
B8
88
70
ENDCHAR
STARTCHAR UPPER LEFT TRIANGLE
ENCODING 9720
SWIDTH 480 0
DWIDTH 5 0
BBX 4 4 0 3
BITMAP
F0
A0
C0
80
ENDCHAR
STARTCHAR UPPER RIGHT TRIANGLE
ENCODING 9721
SWIDTH 480 0
DWIDTH 5 0
BBX 4 4 2 3
BITMAP
F0
50
30
10
ENDCHAR
STARTCHAR LOWER LEFT TRIANGLE
ENCODING 9722
SWIDTH 480 0
DWIDTH 5 0
BBX 4 4 0 0
BITMAP
80
C0
A0
F0
ENDCHAR
STARTCHAR WHITE MEDIUM SQUARE
ENCODING 9723
SWIDTH 480 0
DWIDTH 5 0
BBX 6 6 0 0
BITMAP
FC
84
84
84
84
FC
ENDCHAR
STARTCHAR BLACK MEDIUM SQUARE
ENCODING 9724
SWIDTH 480 0
DWIDTH 5 0
BBX 6 6 0 0
BITMAP
FC
FC
FC
FC
FC
FC
ENDCHAR
STARTCHAR WHITE MEDIUM SMALL SQUARE
ENCODING 9725
SWIDTH 480 0
DWIDTH 5 0
BBX 5 5 0 1
BITMAP
F8
88
88
88
F8
ENDCHAR
STARTCHAR BLACK MEDIUM SMALL SQUARE
ENCODING 9726
SWIDTH 480 0
DWIDTH 5 0
BBX 5 5 0 1
BITMAP
F8
F8
F8
F8
F8
ENDCHAR
STARTCHAR LOWER RIGHT TRIANGLE
ENCODING 9727
SWIDTH 480 0
DWIDTH 5 0
BBX 4 4 2 0
BITMAP
10
30
50
F0
ENDCHAR
STARTCHAR char9728
ENCODING 9728
SWIDTH 480 0
DWIDTH 5 0
BBX 5 7 0 -1
BITMAP
20
00
A8
70
A8
00
20
ENDCHAR
STARTCHAR char9729
ENCODING 9729
SWIDTH 480 0
DWIDTH 5 0
BBX 5 3 0 2
BITMAP
50
78
F8
ENDCHAR
STARTCHAR char9730
ENCODING 9730
SWIDTH 480 0
DWIDTH 5 0
BBX 5 5 0 0
BITMAP
70
F8
20
20
40
ENDCHAR
STARTCHAR char9732
ENCODING 9732
SWIDTH 480 0
DWIDTH 5 0
BBX 6 6 0 0
BITMAP
20
48
10
44
A8
40
ENDCHAR
STARTCHAR char9733
ENCODING 9733
SWIDTH 480 0
DWIDTH 5 0
BBX 5 6 0 0
BITMAP
20
20
F8
70
70
88
ENDCHAR
STARTCHAR char9734
ENCODING 9734
SWIDTH 480 0
DWIDTH 5 0
BBX 5 6 0 0
BITMAP
20
20
D8
50
70
88
ENDCHAR
STARTCHAR BLACK SPADE SUIT
ENCODING 9824
SWIDTH 480 0
DWIDTH 5 0
BBX 5 8 0 -1
BITMAP
20
20
70
F8
F8
70
20
70
ENDCHAR
STARTCHAR WHITE HEART SUIT
ENCODING 9825
SWIDTH 480 0
DWIDTH 5 0
BBX 5 5 0 0
BITMAP
50
A8
88
50
20
ENDCHAR
STARTCHAR WHITE DIAMOND SUIT
ENCODING 9826
SWIDTH 480 0
DWIDTH 5 0
BBX 5 6 0 0
BITMAP
20
50
88
88
50
20
ENDCHAR
STARTCHAR BLACK CLUB SUIT
ENCODING 9827
SWIDTH 480 0
DWIDTH 5 0
BBX 5 8 0 -1
BITMAP
70
70
20
F8
F8
F8
20
70
ENDCHAR
STARTCHAR WHITE SPADE SUIT
ENCODING 9828
SWIDTH 480 0
DWIDTH 5 0
BBX 5 8 0 -1
BITMAP
20
20
50
88
88
70
20
70
ENDCHAR
STARTCHAR BLACK HEART SUIT
ENCODING 9829
SWIDTH 480 0
DWIDTH 5 0
BBX 7 6 0 0
BITMAP
6C
FE
FE
7C
38
10
ENDCHAR
STARTCHAR BLACK DIAMOND SUIT
ENCODING 9830
SWIDTH 480 0
DWIDTH 5 0
BBX 5 9 0 -2
BITMAP
20
20
70
70
F8
70
70
20
20
ENDCHAR
STARTCHAR WHITE CLUB SUIT
ENCODING 9831
SWIDTH 480 0
DWIDTH 5 0
BBX 5 8 0 -1
BITMAP
70
50
20
F8
A8
F8
20
70
ENDCHAR
STARTCHAR char9835
ENCODING 9835
SWIDTH 480 0
DWIDTH 5 0
BBX 6 6 0 0
BITMAP
7C
44
44
44
CC
CC
ENDCHAR
STARTCHAR char9836
ENCODING 9836
SWIDTH 480 0
DWIDTH 5 0
BBX 6 6 0 0
BITMAP
7C
44
7C
44
CC
CC
ENDCHAR
STARTCHAR char9837
ENCODING 9837
SWIDTH 480 0
DWIDTH 5 0
BBX 3 6 0 0
BITMAP
80
80
80
E0
A0
C0
ENDCHAR
STARTCHAR char9839
ENCODING 9839
SWIDTH 480 0
DWIDTH 5 0
BBX 5 6 0 0
BITMAP
10
58
D0
58
D0
40
ENDCHAR
STARTCHAR char10003
ENCODING 10003
SWIDTH 480 0
DWIDTH 5 0
BBX 5 7 0 -1
BITMAP
08
10
10
A0
A0
40
40
ENDCHAR
STARTCHAR char10075
ENCODING 10075
SWIDTH 480 0
DWIDTH 5 0
BBX 2 4 2 3
BITMAP
40
80
C0
C0
ENDCHAR
STARTCHAR char10076
ENCODING 10076
SWIDTH 480 0
DWIDTH 5 0
BBX 2 4 2 3
BITMAP
C0
C0
40
80
ENDCHAR
STARTCHAR char10077
ENCODING 10077
SWIDTH 480 0
DWIDTH 5 0
BBX 5 4 1 3
BITMAP
48
90
D8
D8
ENDCHAR
STARTCHAR char10078
ENCODING 10078
SWIDTH 480 0
DWIDTH 5 0
BBX 5 4 1 3
BITMAP
D8
D8
48
90
ENDCHAR
STARTCHAR char10084
ENCODING 10084
SWIDTH 480 0
DWIDTH 5 0
BBX 7 6 0 0
BITMAP
6C
FE
FE
7C
38
10
ENDCHAR
STARTCHAR char11104
ENCODING 11104
SWIDTH 480 0
DWIDTH 5 0
BBX 6 8 0 -1
BITMAP
C8
DC
C8
C8
D0
E0
C0
C0
ENDCHAR
STARTCHAR char11105
ENCODING 11105
SWIDTH 480 0
DWIDTH 5 0
BBX 4 9 1 -1
BITMAP
80
80
80
F0
00
90
D0
B0
90
ENDCHAR
STARTCHAR char11106
ENCODING 11106
SWIDTH 480 0
DWIDTH 5 0
BBX 6 8 0 -1
BITMAP
3C
40
4C
4C
40
4C
44
60
ENDCHAR
STARTCHAR char11107
ENCODING 11107
SWIDTH 480 0
DWIDTH 5 0
BBX 6 8 0 -1
BITMAP
F8
04
98
90
90
90
90
60
ENDCHAR
STARTCHAR char11108
ENCODING 11108
SWIDTH 480 0
DWIDTH 5 0
BBX 6 9 0 -1
BITMAP
30
48
48
48
FC
CC
CC
FC
78
ENDCHAR
STARTCHAR char11136
ENCODING 11136
SWIDTH 480 0
DWIDTH 5 0
BBX 5 9 0 -1
BITMAP
80
C0
E0
F0
F8
F0
E0
C0
80
ENDCHAR
STARTCHAR char11137
ENCODING 11137
SWIDTH 480 0
DWIDTH 5 0
BBX 5 9 0 -1
BITMAP
80
40
20
10
08
10
20
40
80
ENDCHAR
STARTCHAR char11138
ENCODING 11138
SWIDTH 480 0
DWIDTH 5 0
BBX 5 9 0 -1
BITMAP
08
18
38
78
F8
78
38
18
08
ENDCHAR
STARTCHAR char11139
ENCODING 11139
SWIDTH 480 0
DWIDTH 5 0
BBX 5 9 1 -1
BITMAP
08
10
20
40
80
40
20
10
08
ENDCHAR
STARTCHAR char11150
ENCODING 11150
SWIDTH 480 0
DWIDTH 5 0
BBX 5 8 1 -1
BITMAP
20
F8
A8
88
88
D8
D8
F8
ENDCHAR
STARTCHAR char11151
ENCODING 11151
SWIDTH 480 0
DWIDTH 5 0
BBX 5 8 1 -1
BITMAP
20
F8
88
A8
A8
A8
88
F8
ENDCHAR
STARTCHAR char11152
ENCODING 11152
SWIDTH 480 0
DWIDTH 5 0
BBX 5 8 1 -1
BITMAP
20
F8
88
88
88
88
88
F8
ENDCHAR
STARTCHAR char11153
ENCODING 11153
SWIDTH 480 0
DWIDTH 5 0
BBX 5 8 1 -1
BITMAP
20
F8
88
88
A8
A8
88
F8
ENDCHAR
STARTCHAR char11154
ENCODING 11154
SWIDTH 480 0
DWIDTH 5 0
BBX 5 8 1 -1
BITMAP
20
F8
E8
D8
88
D8
B8
F8
ENDCHAR
STARTCHAR char11155
ENCODING 11155
SWIDTH 480 0
DWIDTH 5 0
BBX 4 7 1 -1
BITMAP
80
C0
E0
F0
E0
C0
80
ENDCHAR
STARTCHAR char11156
ENCODING 11156
SWIDTH 480 0
DWIDTH 5 0
BBX 5 7 1 -1
BITMAP
D8
D8
D8
D8
D8
D8
D8
ENDCHAR
STARTCHAR char11157
ENCODING 11157
SWIDTH 480 0
DWIDTH 5 0
BBX 6 6 0 0
BITMAP
7C
44
44
44
CC
CC
ENDCHAR
STARTCHAR char11158
ENCODING 11158
SWIDTH 480 0
DWIDTH 5 0
BBX 6 6 0 0
BITMAP
78
DC
DC
C4
FC
78
ENDCHAR
STARTCHAR char11159
ENCODING 11159
SWIDTH 480 0
DWIDTH 5 0
BBX 5 7 0 0
BITMAP
20
20
70
70
50
D8
88
ENDCHAR
STARTCHAR char11160
ENCODING 11160
SWIDTH 480 0
DWIDTH 5 0
BBX 6 6 0 0
BITMAP
EC
EC
EC
E0
EC
EC
ENDCHAR
STARTCHAR char11161
ENCODING 11161
SWIDTH 480 0
DWIDTH 5 0
BBX 6 6 0 0
BITMAP
DC
DC
DC
1C
DC
DC
ENDCHAR
STARTCHAR char11162
ENCODING 11162
SWIDTH 480 0
DWIDTH 5 0
BBX 6 6 0 0
BITMAP
FC
FC
FC
00
EC
EC
ENDCHAR
STARTCHAR char11163
ENCODING 11163
SWIDTH 480 0
DWIDTH 5 0
BBX 6 6 0 0
BITMAP
F0
F0
F4
F4
04
3C
ENDCHAR
STARTCHAR char11164
ENCODING 11164
SWIDTH 480 0
DWIDTH 5 0
BBX 5 6 1 0
BITMAP
70
88
88
88
D8
50
ENDCHAR
STARTCHAR char11165
ENCODING 11165
SWIDTH 480 0
DWIDTH 5 0
BBX 6 6 0 0
BITMAP
90
50
A0
D0
38
14
ENDCHAR
STARTCHAR char11166
ENCODING 11166
SWIDTH 480 0
DWIDTH 5 0
BBX 6 6 0 0
BITMAP
10
34
F4
F4
34
10
ENDCHAR
STARTCHAR char11167
ENCODING 11167
SWIDTH 480 0
DWIDTH 5 0
BBX 4 6 0 0
BITMAP
10
30
F0
F0
30
10
ENDCHAR
STARTCHAR char11168
ENCODING 11168
SWIDTH 480 0
DWIDTH 5 0
BBX 5 5 1 0
BITMAP
50
F8
F8
70
20
ENDCHAR
STARTCHAR char11169
ENCODING 11169
SWIDTH 480 0
DWIDTH 5 0
BBX 6 6 0 0
BITMAP
54
00
7C
7C
00
54
ENDCHAR
STARTCHAR char11170
ENCODING 11170
SWIDTH 480 0
DWIDTH 5 0
BBX 5 5 1 0
BITMAP
70
D8
F8
C0
70
ENDCHAR
STARTCHAR char11171
ENCODING 11171
SWIDTH 480 0
DWIDTH 5 0
BBX 5 5 1 0
BITMAP
F8
70
A8
D8
F8
ENDCHAR
STARTCHAR char11172
ENCODING 11172
SWIDTH 480 0
DWIDTH 5 0
BBX 6 6 0 0
BITMAP
FC
84
84
BC
AC
7C
ENDCHAR
STARTCHAR char11173
ENCODING 11173
SWIDTH 480 0
DWIDTH 5 0
BBX 7 7 -1 -1
BITMAP
64
BA
7E
6C
FC
BA
4C
ENDCHAR
STARTCHAR char11174
ENCODING 11174
SWIDTH 480 0
DWIDTH 5 0
BBX 7 7 0 -1
BITMAP
D6
82
38
BA
38
82
D6
ENDCHAR
STARTCHAR char11175
ENCODING 11175
SWIDTH 480 0
DWIDTH 5 0
BBX 7 5 0 0
BITMAP
36
36
00
36
36
ENDCHAR
STARTCHAR char11176
ENCODING 11176
SWIDTH 480 0
DWIDTH 5 0
BBX 6 6 0 0
BITMAP
EC
E0
EC
E0
EC
EC
ENDCHAR
STARTCHAR char11177
ENCODING 11177
SWIDTH 480 0
DWIDTH 5 0
BBX 6 6 0 0
BITMAP
FC
BC
DC
A4
FC
FC
ENDCHAR
STARTCHAR char11178
ENCODING 11178
SWIDTH 480 0
DWIDTH 5 0
BBX 5 7 1 -1
BITMAP
70
50
50
F8
D8
F8
70
ENDCHAR
STARTCHAR char11179
ENCODING 11179
SWIDTH 480 0
DWIDTH 5 0
BBX 4 1 0 3
BITMAP
F0
ENDCHAR
STARTCHAR char11180
ENCODING 11180
SWIDTH 480 0
DWIDTH 5 0
BBX 4 3 0 2
BITMAP
F0
00
F0
ENDCHAR
STARTCHAR char11181
ENCODING 11181
SWIDTH 480 0
DWIDTH 5 0
BBX 5 5 0 1
BITMAP
F8
00
70
00
F8
ENDCHAR
STARTCHAR char11182
ENCODING 11182
SWIDTH 480 0
DWIDTH 5 0
BBX 5 5 0 1
BITMAP
F8
A8
F8
88
F8
ENDCHAR
STARTCHAR char11183
ENCODING 11183
SWIDTH 480 0
DWIDTH 5 0
BBX 5 5 0 1
BITMAP
F0
40
70
50
F8
ENDCHAR
STARTCHAR char11184
ENCODING 11184
SWIDTH 480 0
DWIDTH 5 0
BBX 6 4 0 0
BITMAP
7C
28
28
28
ENDCHAR
STARTCHAR char11185
ENCODING 11185
SWIDTH 480 0
DWIDTH 5 0
BBX 4 5 2 0
BITMAP
50
A0
00
50
A0
ENDCHAR
STARTCHAR char11186
ENCODING 11186
SWIDTH 480 0
DWIDTH 5 0
BBX 6 7 1 -1
BITMAP
84
C4
E4
F4
E4
C4
84
ENDCHAR
STARTCHAR char11187
ENCODING 11187
SWIDTH 480 0
DWIDTH 5 0
BBX 6 7 1 -1
BITMAP
84
8C
9C
BC
9C
8C
84
ENDCHAR
STARTCHAR char11188
ENCODING 11188
SWIDTH 480 0
DWIDTH 5 0
BBX 7 8 0 -1
BITMAP
10
38
7C
FE
38
38
38
70
ENDCHAR
STARTCHAR char11189
ENCODING 11189
SWIDTH 480 0
DWIDTH 5 0
BBX 7 8 0 -1
BITMAP
1C
38
38
38
FE
7C
38
10
ENDCHAR
ENDFONT
